<?xml version="1.0" encoding="UTF-8"?>
<svg version="1.1" xmlns="http://www.w3.org/2000/svg" width="50" height="50">
<path d="M0 0 C7.15801225 5.82628904 13.52591766 12.4382985 20 19 C23.36335594 17.54254576 25.54534005 15.68882146 28.109375 13.0859375 C28.86347656 12.32539063 29.61757813 11.56484375 30.39453125 10.78125 C31.17183594 9.9871875 31.94914062 9.193125 32.75 8.375 C33.54277344 7.57320312 34.33554687 6.77140625 35.15234375 5.9453125 C37.10614493 3.96797154 39.05512103 1.98611091 41 0 C41.99 0.66 42.98 1.32 44 2 C42.4608199 5.66752005 40.24514548 7.98580573 37.4296875 10.765625 C36.53378906 11.65507812 35.63789062 12.54453125 34.71484375 13.4609375 C33.77769531 14.38132812 32.84054688 15.30171875 31.875 16.25 C30.92011363 17.19484856 29.96568141 18.14015633 29.01171875 19.0859375 C26.67890913 21.39518338 24.34155914 23.69963203 22 26 C18.33247995 24.4608199 16.01419427 22.24514548 13.234375 19.4296875 C12.34492188 18.53378906 11.45546875 17.63789063 10.5390625 16.71484375 C9.61867188 15.77769531 8.69828125 14.84054688 7.75 13.875 C6.80515144 12.92011363 5.85984367 11.96568141 4.9140625 11.01171875 C2.60481662 8.67890913 0.30036797 6.34155914 -2 4 C-1.34 2.68 -0.68 1.36 0 0 Z " fill="#000000" transform="translate(4,12)"/>
</svg>
