<?xml version="1.0" encoding="UTF-8"?>
<svg version="1.1" xmlns="http://www.w3.org/2000/svg" width="250" height="250">
<path d="M0 0 C1.75763672 0.47566406 1.75763672 0.47566406 3.55078125 0.9609375 C20.27333882 5.94062201 34.82612595 14.69582749 48 26 C46.14099778 29.13999535 44.24154592 32.11801239 42 35 C38.21667159 33.68377211 35.72960805 32.0902086 32.75 29.4375 C12.41689978 12.91310734 -15.0183125 6.02753651 -40.875 8.625 C-60.56840481 11.06019512 -79.71531385 18.05959087 -95 31 C-95.49048828 31.41507813 -95.98097656 31.83015625 -96.48632812 32.2578125 C-115.87407902 48.85508611 -130.11021581 72.29802532 -133 98 C-134.57391817 120.47393029 -132.16051439 139.90354324 -122 160 C-121.19755859 161.58748047 -121.19755859 161.58748047 -120.37890625 163.20703125 C-107.2661045 187.19999944 -83.91251876 204.58926652 -57.875 212.3125 C-29.33817595 219.19350872 -1.59128884 215.36673309 24 201 C28.2821153 198.34599239 32.16381773 195.25961321 36 192 C36.845625 191.31550781 37.69125 190.63101563 38.5625 189.92578125 C55.13197346 175.91939822 65.76288366 156.88536758 71 136 C71.18401367 135.26773193 71.36802734 134.53546387 71.55761719 133.78100586 C77.05889324 109.62099003 72.53368815 84.49225822 61.31640625 62.734375 C60 60 60 60 60 57.4375 C61.35315566 54.13918308 63.30999878 52.2963425 66 50 C66.66 50 67.32 50 68 50 C73.85672558 60.42471634 78.81405618 70.41815717 82 82 C82.31839844 83.06089844 82.63679687 84.12179688 82.96484375 85.21484375 C87.36072135 102.57552165 87.1351151 124.86207522 82 142 C81.68289062 143.17175781 81.36578125 144.34351563 81.0390625 145.55078125 C76.65287172 160.28029425 69.34691958 174.58976062 59 186 C58.32710937 186.80179688 57.65421875 187.60359375 56.9609375 188.4296875 C38.55580196 209.91350025 12.90556754 222.93048257 -15 227 C-19.8093653 227.24239642 -24.6225996 227.24570884 -29.4375 227.25 C-30.11362335 227.25067474 -30.7897467 227.25134949 -31.48635864 227.25204468 C-41.34616812 227.23637675 -50.4920592 226.84890796 -60 224 C-61.17175781 223.68289062 -62.34351562 223.36578125 -63.55078125 223.0390625 C-80.13733836 218.09987654 -95.0943323 209.46232619 -108 198 C-108.88945313 197.21109375 -109.77890625 196.4221875 -110.6953125 195.609375 C-129.94480697 177.38571566 -143.86094607 150.40238071 -145.16113281 123.68945312 C-145.52964671 93.77983717 -145.52964671 93.77983717 -142 82 C-141.68289062 80.82824219 -141.36578125 79.65648438 -141.0390625 78.44921875 C-136.09987654 61.86266164 -127.46232619 46.9056677 -116 34 C-115.21109375 33.11054687 -114.4221875 32.22109375 -113.609375 31.3046875 C-98.93002402 15.79901543 -80.41174013 5.75715747 -60 0 C-58.9378125 -0.3196875 -57.875625 -0.639375 -56.78125 -0.96875 C-39.41267327 -5.35147497 -17.14390336 -5.13690649 0 0 Z " fill="#FFFFFF" transform="translate(155,13)"/>
<path d="M0 0 C2.64 1.98 5.28 3.96 8 6 C6.9259103 10.2963588 5.96671979 11.436113 3 14.5625 C-0.20651127 18.02109549 -3.2903149 21.51529811 -6.25 25.1875 C-9.90846134 29.70940939 -13.67692716 34.11778899 -17.5 38.5 C-21.23415168 42.78206292 -24.92459104 47.08331835 -28.5 51.5 C-32.61893166 56.58809206 -36.90147334 61.52003823 -41.203125 66.453125 C-44.36479231 70.08756499 -47.46857472 73.75529818 -50.5 77.5 C-54.57757127 82.53348541 -58.80505915 87.42333309 -63.05810547 92.30810547 C-67.96991597 97.95246679 -72.81024778 103.6541942 -77.63085938 109.37646484 C-79.06939665 111.08229096 -80.51084641 112.7856175 -81.953125 114.48828125 C-82.44216309 115.06562012 -82.93120117 115.64295898 -83.43505859 116.23779297 C-84.35978032 117.32933461 -85.28457844 118.42081155 -86.20947266 119.51220703 C-89.15705743 122.99388025 -92.08321536 126.49254034 -95 130 C-101.02501762 125.90851239 -106.03940386 121.10832763 -111.09375 115.87890625 C-113.8825024 113.04814713 -116.86399159 110.47069066 -119.86767578 107.87182617 C-123.5595578 104.63096753 -127.11827057 101.24966018 -130.6875 97.875 C-131.42033203 97.18535156 -132.15316406 96.49570313 -132.90820312 95.78515625 C-136.66273147 92.24391491 -140.37561643 88.67442437 -144 85 C-142.47291037 81.56404834 -140.40072955 78.88087546 -138 76 C-134.06785699 77.58939426 -131.66979654 80.16342502 -128.75 83.1875 C-124.91937086 87.11012557 -120.9981166 90.83087608 -116.828125 94.390625 C-114.97062012 96.02586434 -113.23393991 97.73481793 -111.5 99.5 C-106.67340714 104.40390671 -101.54190293 108.92037301 -96 113 C-95.50113281 112.37996094 -95.00226563 111.75992188 -94.48828125 111.12109375 C-89.42265015 104.87317891 -84.22632087 98.76120678 -78.94506836 92.69555664 C-74.02335794 87.03977515 -69.17323056 81.32651546 -64.34277344 75.59277344 C-62.06578561 72.89185188 -59.78254206 70.19622756 -57.5 67.5 C-56.58330416 66.41669135 -55.66663747 65.33335804 -54.75 64.25 C-52.91666667 62.08333333 -51.08333333 59.91666667 -49.25 57.75 C-48.79633057 57.21383057 -48.34266113 56.67766113 -47.87524414 56.12524414 C-46.95782203 55.04104762 -46.04034148 53.95690055 -45.12280273 52.87280273 C-42.84221456 50.17807689 -40.56262185 47.48252188 -38.28515625 44.78515625 C-33.00185413 38.53056125 -27.68689073 32.30495289 -22.34667969 26.09887695 C-19.28071321 22.52507857 -16.27624032 18.909575 -13.3125 15.25 C-9.05391393 10.00086369 -4.56911981 4.97958447 0 0 Z " fill="#FFFFFF" transform="translate(216,38)"/>
</svg>
