<?xml version="1.0" encoding="UTF-8"?>
<svg version="1.1" xmlns="http://www.w3.org/2000/svg" width="24" height="24">
<path d="M0 0 C1.32 0 2.64 0 4 0 C4 2.97 4 5.94 4 9 C5.32 9 6.64 9 8 9 C6.84826645 11.46800047 5.95216435 13.04783565 4 15 C1.12312519 14.77870194 -0.53951144 14.36521506 -2.8125 12.5625 C-4 11 -4 11 -4 9 C-2.68 9 -1.36 9 0 9 C0 6.03 0 3.06 0 0 Z " fill="#FFFFFF" transform="translate(10,2)"/>
<path d="M0 0 C6.6 0 13.2 0 20 0 C20 0.66 20 1.32 20 2 C13.4 2 6.8 2 0 2 C0 1.34 0 0.68 0 0 Z " fill="#FFFFFF" transform="translate(2,20)"/>
</svg>
