<?xml version="1.0" encoding="UTF-8"?>
<svg version="1.1" xmlns="http://www.w3.org/2000/svg" width="726" height="251">
<path d="M0 0 C0.66 0.33 1.32 0.66 2 1 C2 1.66 2 2.32 2 3 C2.66 3 3.32 3 4 3 C4 3.66 4 4.32 4 5 C4.99621368 4.99333817 5.99242737 4.98667633 7.01882935 4.97981262 C16.46219744 4.91868108 25.90552476 4.87387478 35.34904671 4.84456348 C40.20267181 4.82898708 45.05613564 4.80789763 49.90966797 4.77368164 C54.60405918 4.74079917 59.29829644 4.72308684 63.99279404 4.71536827 C65.77312514 4.70987611 67.55344897 4.69915326 69.33371353 4.68280983 C96.10792846 4.44705652 96.10792846 4.44705652 103.625 10.375 C110 17.42105263 110 17.42105263 110 21 C110.825 21.0825 111.65 21.165 112.5 21.25 C118.97880016 22.63831432 124.72662036 26.04496527 130 30 C130 30.66 130 31.32 130 32 C130.66 32 131.32 32 132 32 C134.52673849 34.22947514 135.84964838 36.0138227 136.36328125 39.3828125 C136.55382069 46.10183484 136.55382069 46.10183484 134.4921875 49.4453125 C131.60377681 54.39039258 132.4126517 60.79677639 133.421875 66.30078125 C134.2047387 69.41568952 134.2047387 69.41568952 136 72 C137.48638992 72.15655027 138.97949127 72.25066943 140.47265625 72.31640625 C141.37177734 72.35830078 142.27089844 72.40019531 143.19726562 72.44335938 C144.14279297 72.48267578 145.08832031 72.52199219 146.0625 72.5625 C147.4865918 72.62727539 147.4865918 72.62727539 148.93945312 72.69335938 C151.29281353 72.79979276 153.64628354 72.90181008 156 73 C157.20330167 70.04551038 158.33268201 67.09813242 159.3125 64.0625 C160.23339273 61.2289839 161.21163612 58.44258302 162.26953125 55.65625 C164.62468469 49.41203915 166.55476277 43.90187955 166.56640625 37.18359375 C167.2486251 33.74791503 168.35912451 32.31176943 171 30 C174.20570755 29.33516595 177.30271019 29.43778186 180.5625 29.5625 C181.42552734 29.56830078 182.28855469 29.57410156 183.17773438 29.58007812 C189.55596301 29.70397534 189.55596301 29.70397534 193 32 C193.2578125 34.34765625 193.2578125 34.34765625 193.125 37.0625 C193.05420354 38.70733778 193.00580723 40.35364957 193 42 C193.33 42.33 193.66 42.66 194 43 C194.53471924 42.86053955 195.06943848 42.7210791 195.62036133 42.57739258 C200.7487778 41.33303996 206.2179975 41.73354556 211.47924805 41.70483398 C212.94256282 41.69334749 214.40583679 41.67294835 215.86889648 41.64331055 C224.24908371 41.47379382 231.62123027 41.4307146 239 46 C239 46.99 239 47.98 239 49 C241.64 48.67 244.28 48.34 247 48 C247 47.34 247 46.68 247 46 C253.30724506 43.21739188 259.34912427 42.84822546 266.171875 42.8671875 C267.31731781 42.86575241 267.31731781 42.86575241 268.48590088 42.86428833 C270.089397 42.8636113 271.69289594 42.86543213 273.29638672 42.86962891 C275.75624674 42.87501367 278.21592663 42.86965266 280.67578125 42.86328125 C282.23697957 42.86394154 283.79817778 42.86522167 285.359375 42.8671875 C286.09581238 42.86516327 286.83224976 42.86313904 287.59100342 42.86105347 C292.77003684 42.88501842 292.77003684 42.88501842 295 44 C295 45.32 295 46.64 295 48 C299.68773278 48.31961814 301.35709338 47.78575212 305 45 C312.36627675 42.50611595 319.5401172 42.80755815 327.25 42.9375 C335.35212688 43.05061139 343.30329645 43.00104965 351.37353516 42.23364258 C357.24335815 41.71148041 363.11303884 41.86606047 369 42 C369.99386719 42.01675781 370.98773438 42.03351563 372.01171875 42.05078125 C377.34547703 42.31708872 380.90592807 43.33245293 385.625 45.875 C389.37643093 47.84776764 389.37643093 47.84776764 393.375 47.25 C395.62629273 45.93519252 395.62629273 45.93519252 397.5390625 44.3671875 C403.23436047 41.20313307 410.89249658 41.85064292 417.28613281 41.85473633 C418.05970123 41.85137772 418.83326965 41.8480191 419.63027954 41.84455872 C422.15457823 41.83515805 424.67880996 41.83311185 427.203125 41.83203125 C428.97190375 41.82881357 430.74068224 41.82544912 432.50946045 41.82194519 C436.20097471 41.81598302 439.89246564 41.81410253 443.58398438 41.81469727 C448.31056378 41.81479929 453.03699434 41.80109224 457.76353836 41.78392506 C461.40953255 41.7728079 465.05549054 41.77077789 468.70149994 41.77130699 C470.44459297 41.77012857 472.18768699 41.76571449 473.93076324 41.75797462 C476.36443094 41.74817057 478.79777229 41.75105321 481.23144531 41.75708008 C481.94738861 41.75146057 482.66333191 41.74584106 483.40097046 41.74005127 C487.375099 41.76504296 490.41973343 42.24970471 494 44 C494.09796875 45.134375 494.1959375 46.26875 494.296875 47.4375 C494.9295978 56.85731993 494.9295978 56.85731993 498.1875 65.5625 C500.98031516 70.8592184 499.5764845 74.37961593 498.3125 80.125 C497.93495674 83.59839797 498.82164251 85.74218813 500 89 C500.4375 91.6875 500.4375 91.6875 500 94 C496.01890084 97.07134008 492.67553645 97.46701812 487.72946167 97.72483826 C487.0175345 97.76464266 486.30560732 97.80444707 485.5721066 97.84545767 C483.22157983 97.97140161 480.87072566 98.07556059 478.51904297 98.17749023 C476.85234211 98.25815633 475.18564434 98.3388863 473.51894951 98.41967678 C456.73462895 99.19201182 439.96091223 99.24626577 423.16257715 99.16985631 C418.90249646 99.15310779 414.64240148 99.14945333 410.3822937 99.14439392 C402.34558549 99.13317993 394.3089364 99.11258395 386.27226055 99.08749622 C371.91092441 99.04272362 357.54956918 99.00957782 343.1881808 98.98725218 C338.18705408 98.97904356 333.18598927 98.96509875 328.1848914 98.94639462 C311.55752052 98.88776433 294.97699668 99.05968701 278.36038685 99.67298222 C269.30881886 99.99545205 260.37893159 99.96581763 251.33203125 99.5625 C236.43184552 99.01073317 221.5461666 98.91239461 206.63671875 98.9375 C205.5400098 98.93903076 204.44330086 98.94056152 203.31335831 98.94213867 C195.43804939 98.95426218 187.56278089 98.97616865 179.6875 99 C171.70258173 99.02377046 163.71768194 99.04399056 155.73273659 99.05593872 C152.57803749 99.06236491 149.42340122 99.07484481 146.26872253 99.08764648 C144.34410657 99.09127673 142.41949005 99.09462874 140.49487305 99.09765625 C139.632173 99.10282257 138.76947296 99.10798889 137.88063049 99.11331177 C133.14455091 99.11372527 128.67096294 98.79370937 124 98 C124 98.66 124 99.32 124 100 C113.36265878 107.34483084 100.24717404 107.45296856 87.75 107.25 C86.328865 107.23799811 84.90772168 107.22694895 83.48657227 107.21679688 C74.29135696 107.13249976 65.11381507 106.79473083 55.92919922 106.35644531 C44.4130188 105.86669069 32.89915651 105.96536027 21.375 106 C-5.60496879 106.06260037 -5.60496879 106.06260037 -16.5625 105.6875 C-17.47531738 105.66494141 -18.38813477 105.64238281 -19.32861328 105.61914062 C-24.21701858 105.4080613 -27.81372563 104.78029418 -32 102 C-38.06928496 94.66382546 -39.46069136 85.21382722 -39 76 C-38.5 73 -38.5 73 -38 71 C-38.33 71 -38.66 71 -39 71 C-39 69.35 -39 67.7 -39 66 C-40.11375 65.855625 -41.2275 65.71125 -42.375 65.5625 C-46 65 -46 65 -48 64 C-48.40729228 61.67843403 -48.74438677 59.3431213 -49 57 C-49.69867188 56.96261719 -50.39734375 56.92523438 -51.1171875 56.88671875 C-52.02726562 56.82097656 -52.93734375 56.75523438 -53.875 56.6875 C-55.23238281 56.60048828 -55.23238281 56.60048828 -56.6171875 56.51171875 C-59 56 -59 56 -61 53 C-61.4375 50.125 -61.4375 50.125 -61 47 C-58.499405 43.83748279 -56.52002919 42.22432632 -52.8125 40.625 C-49.62120626 39.17910763 -49.62120626 39.17910763 -48.625 35.3125 C-48.41875 34.219375 -48.2125 33.12625 -48 32 C-47.01 32 -46.02 32 -45 32 C-44.87625 31.29875 -44.7525 30.5975 -44.625 29.875 C-43.96161655 26.82343613 -43.02788045 23.94659062 -42 21 C-41.34 21 -40.68 21 -40 21 C-39.96261719 20.22914062 -39.92523438 19.45828125 -39.88671875 18.6640625 C-39.82097656 17.66117188 -39.75523438 16.65828125 -39.6875 15.625 C-39.62949219 14.62726563 -39.57148437 13.62953125 -39.51171875 12.6015625 C-39.34285156 11.74304688 -39.17398438 10.88453125 -39 10 C-35.79619983 7.86413322 -34.98060033 7.76867825 -31.3125 7.875 C-30.10013672 7.90207031 -30.10013672 7.90207031 -28.86328125 7.9296875 C-27.94095703 7.96449219 -27.94095703 7.96449219 -27 8 C-26.505 8.99 -26.505 8.99 -26 10 C-20.15379066 8.90383575 -17.06744081 6.66687806 -12.796875 2.55859375 C-8.95397543 -0.77470392 -4.795826 -0.15224844 0 0 Z M292 48 C292.66 48.66 293.32 49.32 294 50 C294 49.34 294 48.68 294 48 C293.34 48 292.68 48 292 48 Z M207 56 C207 56.66 207 57.32 207 58 C206.01 58 205.02 58 204 58 C202.1272922 59.63517472 202.1272922 59.63517472 201 62 C201.08033744 65.1331601 202.01162605 67.02274662 203.4375 69.8125 C206.85992495 72.73408227 209.20327024 72.59960966 213.58984375 72.34765625 C216.82687768 71.88072591 218.63037159 71.29557753 221 69 C222.36900354 65.42003741 222.36900354 65.42003741 223 62 C223.66 62 224.32 62 225 62 C225 61.01 225 60.02 225 59 C224.34 59 223.68 59 223 59 C223.33 58.01 223.66 57.02 224 56 C218.39 56 212.78 56 207 56 Z M358 64 C358.33 64.66 358.66 65.32 359 66 C359.66 66 360.32 66 361 66 C361 65.34 361 64.68 361 64 C360.01 64 359.02 64 358 64 Z " fill="#F4F9FB" transform="translate(137,54)"/>
<path d="M0 0 C1.3959716 -0.01292336 1.3959716 -0.01292336 2.82014465 -0.02610779 C5.89071605 -0.04877712 8.96037571 -0.04202806 12.03100586 -0.03295898 C14.16662365 -0.03819342 16.30223913 -0.04446924 18.43785095 -0.05174255 C22.91082652 -0.06214802 27.38348397 -0.05758194 31.85644531 -0.04296875 C37.59245004 -0.0257643 43.32745466 -0.04929649 49.06334782 -0.08445835 C53.47198644 -0.10640018 57.88038445 -0.10499891 62.28906059 -0.09669304 C64.4042006 -0.09587208 66.51935802 -0.102763 68.6344471 -0.11746407 C71.58895864 -0.1348541 74.54165578 -0.12041436 77.49609375 -0.09765625 C78.37152832 -0.10934845 79.24696289 -0.12104065 80.14892578 -0.13308716 C86.0790929 -0.03998895 86.0790929 -0.03998895 89.2028656 2.92445374 C90.77261255 5.69075152 91.53217854 7.35885488 91.68334961 10.53344727 C91.21284654 12.20007369 90.73916767 13.86590901 90.24487305 15.52563477 C89.2483506 19.08885242 88.57786273 22.7161957 87.87084961 26.34594727 C87.70270752 27.19253906 87.53456543 28.03913086 87.36132812 28.91137695 C86.34628587 34.0488466 85.37146634 39.19285028 84.41772461 44.34204102 C84.20220947 45.49406006 83.98669434 46.6460791 83.76464844 47.83300781 C83.34405105 50.08719928 82.92955625 52.34254028 82.52197266 54.59912109 C81.27176533 61.28492288 79.7421696 67.41580729 76.68334961 73.53344727 C72.14024178 76.0581966 67.60079303 75.82933039 62.55029297 75.82397461 C61.18358208 75.83405045 61.18358208 75.83405045 59.78926086 75.84432983 C56.78384928 75.86329561 53.77866102 75.86723278 50.77319336 75.86938477 C48.68241789 75.87581175 46.59164332 75.88254004 44.50086975 75.88955688 C40.12214064 75.9015247 35.74349041 75.90523802 31.36474609 75.90405273 C25.74997244 75.90384913 20.1357026 75.93119604 14.52104855 75.96559715 C10.20510017 75.98781174 5.88927432 75.99189201 1.57327461 75.99083328 C-0.49721456 75.99319573 -2.56770679 76.00205529 -4.63813972 76.01749802 C-7.53011805 76.03705549 -10.42099286 76.03136118 -13.31298828 76.01928711 C-14.16972137 76.03052612 -15.02645447 76.04176514 -15.90914917 76.05334473 C-21.71542627 75.99162587 -21.71542627 75.99162587 -24.81687927 73.62808228 C-28.26825984 68.80775837 -27.60012036 64.40434906 -26.73071289 58.66625977 C-26.47426089 57.32904575 -26.21117023 55.9930888 -25.94165039 54.65844727 C-25.81532227 54.00231445 -25.68899414 53.34618164 -25.55883789 52.67016602 C-24.88737743 49.22557388 -24.15291109 45.80138421 -23.36743164 42.38110352 C-22.51541336 38.59019235 -21.80766457 34.78563958 -21.13305664 30.95922852 C-20.92745117 29.79713867 -20.7218457 28.63504883 -20.51000977 27.43774414 C-20.08755585 25.03250343 -19.67093815 22.62623074 -19.26000977 20.21899414 C-18.94966797 18.48166016 -18.94966797 18.48166016 -18.63305664 16.70922852 C-18.36150757 15.14555542 -18.36150757 15.14555542 -18.08447266 13.55029297 C-15.40243459 3.01231383 -10.27358294 -0.07676135 0 0 Z " fill="#255C88" transform="translate(139.316650390625,71.466552734375)"/>
<path d="M0 0 C0.94552734 -0.01160156 1.89105469 -0.02320312 2.86523438 -0.03515625 C8.62017945 -0.01109376 12.70145585 0.70283584 17.8125 3.375 C17.8125 4.035 17.8125 4.695 17.8125 5.375 C18.8025 5.705 19.7925 6.035 20.8125 6.375 C21.29558604 17.31153126 21.04468251 25.02672624 14.8125 34.375 C14.1525 34.375 13.4925 34.375 12.8125 34.375 C12.8125 35.035 12.8125 35.695 12.8125 36.375 C8.13002551 39.13670434 4.34080149 39.78749282 -0.9921875 39.66796875 C-1.7161673 39.66372391 -2.44014709 39.65947906 -3.18606567 39.65510559 C-5.47860287 39.63842972 -7.77023246 39.60080081 -10.0625 39.5625 C-11.62498722 39.54743871 -13.18748835 39.53375284 -14.75 39.52148438 C-18.56284505 39.48856293 -22.37501911 39.43686002 -26.1875 39.375 C-26.1875 38.715 -26.1875 38.055 -26.1875 37.375 C-26.8475 37.375 -27.5075 37.375 -28.1875 37.375 C-32.14278328 30.60478783 -31.44430204 24.91581226 -30.1875 17.375 C-28.73867036 12.66794262 -27.00815388 8.60555289 -23.1875 5.375 C-22.5275 5.375 -21.8675 5.375 -21.1875 5.375 C-21.1875 4.715 -21.1875 4.055 -21.1875 3.375 C-14.00649965 0.80121378 -7.60652839 -0.09449104 0 0 Z M-6.1875 19.375 C-5.8575 20.035 -5.5275 20.695 -5.1875 21.375 C-4.5275 21.375 -3.8675 21.375 -3.1875 21.375 C-3.1875 20.715 -3.1875 20.055 -3.1875 19.375 C-4.1775 19.375 -5.1675 19.375 -6.1875 19.375 Z " fill="#3583AF" transform="translate(501.1875,98.625)"/>
<path d="M0 0 C1.41345703 -0.03673828 1.41345703 -0.03673828 2.85546875 -0.07421875 C9.2665414 -0.10082071 14.67024273 0.82212174 20.125 4.375 C22.63052308 8.13328462 22.49695709 9.91151494 22.125 14.375 C20.59130807 18.9760758 19.4041466 21.98274567 15.125 24.375 C11.73339844 24.71557617 11.73339844 24.71557617 7.734375 24.66796875 C7.02976135 24.66372391 6.32514771 24.65947906 5.59918213 24.65510559 C3.35739288 24.63836538 1.11651569 24.60072404 -1.125 24.5625 C-2.64842448 24.54744704 -4.17186311 24.5337597 -5.6953125 24.52148438 C-9.42216941 24.48847791 -13.14849563 24.43672854 -16.875 24.375 C-16.545 26.025 -16.215 27.675 -15.875 29.375 C-5.645 29.705 4.585 30.035 15.125 30.375 C14.125 37.375 14.125 37.375 13.125 39.375 C7.89225612 39.39967917 2.65954597 39.41785003 -2.57324219 39.42993164 C-4.35417267 39.43496711 -6.135099 39.44179581 -7.91601562 39.45043945 C-10.47266665 39.46253942 -13.02926312 39.46823609 -15.5859375 39.47265625 C-16.38494476 39.47781754 -17.18395203 39.48297882 -18.00717163 39.48829651 C-23.64725659 39.48887171 -23.64725659 39.48887171 -25.875 38.375 C-25.875 37.715 -25.875 37.055 -25.875 36.375 C-26.865 36.045 -27.855 35.715 -28.875 35.375 C-29.70788874 29.12192761 -29.91363773 23.60682639 -28.875 17.375 C-28.215 17.375 -27.555 17.375 -26.875 17.375 C-26.813125 16.323125 -26.75125 15.27125 -26.6875 14.1875 C-25.72594818 9.67560301 -24.32074815 8.32849842 -20.875 5.375 C-20.42125 4.818125 -19.9675 4.26125 -19.5 3.6875 C-14.21172246 -0.58380109 -6.41212121 0.0087003 0 0 Z " fill="#3997C0" transform="translate(554.875,98.625)"/>
<path d="M0 0 C1.02480469 -0.020625 2.04960937 -0.04125 3.10546875 -0.0625 C9.10170174 -0.09336864 13.49437884 0.26630262 18.75 3.25 C20.1875 5.4375 20.1875 5.4375 20.75 7.25 C21.41 7.25 22.07 7.25 22.75 7.25 C23.13750213 17.3681113 22.8105697 26.48003364 15.75 34.25 C10.63358372 39.41189554 5.86599917 39.85836947 -1.14051819 39.93894958 C-2.62790551 39.93534667 -4.1152952 39.92282528 -5.60253906 39.90185547 C-7.87733235 39.87497244 -10.1472297 39.90170161 -12.421875 39.93359375 C-13.87761498 39.93029085 -15.33335193 39.92388706 -16.7890625 39.9140625 C-18.10084473 39.90842285 -19.41262695 39.9027832 -20.76416016 39.89697266 C-25.05728119 39.10016843 -26.50234824 37.55447846 -29.25 34.25 C-29.58 33.92 -29.91 33.59 -30.25 33.25 C-31.04461372 23.97441289 -30.39908697 14.85197479 -24.5 7.3125 C-17.86315181 0.27843396 -9.0775761 0.04499418 0 0 Z M-9.25 11.25 C-9.25 11.91 -9.25 12.57 -9.25 13.25 C-10.24 13.25 -11.23 13.25 -12.25 13.25 C-14.1227078 14.88517472 -14.1227078 14.88517472 -15.25 17.25 C-15.16966256 20.3831601 -14.23837395 22.27274662 -12.8125 25.0625 C-9.39007505 27.98408227 -7.04672976 27.84960966 -2.66015625 27.59765625 C0.57687768 27.13072591 2.38037159 26.54557753 4.75 24.25 C6.11900354 20.67003741 6.11900354 20.67003741 6.75 17.25 C7.41 17.25 8.07 17.25 8.75 17.25 C8.75 16.26 8.75 15.27 8.75 14.25 C8.09 14.25 7.43 14.25 6.75 14.25 C7.08 13.26 7.41 12.27 7.75 11.25 C2.14 11.25 -3.47 11.25 -9.25 11.25 Z " fill="#214973" transform="translate(353.25,98.75)"/>
<path d="M0 0 C103.95 0 207.9 0 315 0 C315 0.99 315 1.98 315 3 C312.36 3 309.72 3 307 3 C307 3.66 307 4.32 307 5 C306.35343665 4.99907821 305.7068733 4.99815641 305.04071712 4.99720669 C289.14892692 4.97491127 273.25714231 4.95847331 257.36534023 4.94818783 C249.67950814 4.94307889 241.99368662 4.93614224 234.30786133 4.92456055 C227.59192762 4.91444539 220.87600158 4.90810757 214.16006047 4.90591151 C210.61946317 4.90463225 207.07888777 4.90173117 203.53829765 4.89426994 C188.86908711 4.86449571 174.22923079 5.00044097 159.57055664 5.53344727 C149.06295849 5.91387286 138.69055053 6.02750319 128.1875 5.5625 C113.66444042 5.02684547 99.15713766 4.91186398 84.625 4.9375 C83.57949982 4.93903076 82.53399963 4.94056152 81.45681763 4.94213867 C73.9711876 4.95424004 66.48560049 4.97616944 59 5 C51.39573473 5.02375285 43.7914884 5.04395959 36.18719482 5.05593872 C33.18026908 5.06238158 30.17340836 5.07485846 27.16650391 5.08764648 C25.34277399 5.09127459 23.5190435 5.09462687 21.6953125 5.09765625 C20.86858032 5.10282257 20.04184814 5.10798889 19.19006348 5.11331177 C15.60832569 5.11364346 12.44882554 4.92166369 9 4 C7.25309081 3.7856066 5.5025977 3.59892347 3.75 3.4375 C2.41195313 3.31181641 2.41195313 3.31181641 1.046875 3.18359375 C0.37140625 3.12300781 -0.3040625 3.06242188 -1 3 C-0.67 2.01 -0.34 1.02 0 0 Z " fill="#44BAD8" transform="translate(260,148)"/>
<path d="M0 0 C0.825 0.103125 1.65 0.20625 2.5 0.3125 C4.5 3.3125 4.5 3.3125 4.5 6.3125 C5.56773651 6.30361755 6.63547302 6.29473511 7.73556519 6.2855835 C17.82766532 6.20428411 27.91969849 6.14443237 38.01205254 6.10525131 C43.19990629 6.0844303 48.3874944 6.0562133 53.57519531 6.01074219 C58.58728754 5.96708826 63.59912521 5.94332168 68.61139297 5.93299103 C70.51785409 5.92563463 72.42430222 5.91126968 74.33065414 5.88957977 C93.51759925 5.680078 93.51759925 5.680078 101.5 10.3125 C101.5 10.9725 101.5 11.6325 101.5 12.3125 C102.49 12.6425 103.48 12.9725 104.5 13.3125 C105.66796875 15.38671875 105.66796875 15.38671875 106.6875 18 C107.20376953 19.27423828 107.20376953 19.27423828 107.73046875 20.57421875 C109.23118467 25.91432972 108.39163316 30.45254583 107.0625 35.75 C105.92353625 40.32236173 105.17300955 44.60143317 104.5 49.3125 C112.915 48.8175 112.915 48.8175 121.5 48.3125 C121.5 47.6525 121.5 46.9925 121.5 46.3125 C122.16 46.3125 122.82 46.3125 123.5 46.3125 C123.5 45.6525 123.5 44.9925 123.5 44.3125 C124.49 44.3125 125.48 44.3125 126.5 44.3125 C126.45875 43.36375 126.4175 42.415 126.375 41.4375 C126.5 38.3125 126.5 38.3125 128.5 36.3125 C131.63704316 35.978772 133.66554166 35.78400972 136.375 37.5 C137.92229478 39.99286381 138.00405716 41.43217335 137.5 44.3125 C135.9375 46.125 135.9375 46.125 133.5 47.3125 C132.38625 47.27125 131.2725 47.23 130.125 47.1875 C126.3414431 46.90489612 126.3414431 46.90489612 124.015625 49.80078125 C119.57034123 53.73052883 114.23614435 52.84958398 108.625 52.625 C107.55507812 52.60244141 106.48515625 52.57988281 105.3828125 52.55664062 C102.75375593 52.49795633 100.12761418 52.4159118 97.5 52.3125 C97.35247719 48.13268713 97.78915246 44.80381227 99 40.8125 C100.73775994 34.1204533 102.95106951 24.78797136 99.4453125 18.38671875 C98.013064 16.86302631 98.013064 16.86302631 95.5 15.3125 C94.51 14.3225 94.51 14.3225 93.5 13.3125 C91.62151582 12.99136407 91.62151582 12.99136407 89.44532776 13.01383972 C88.59708435 12.99834076 87.74884094 12.9828418 86.87489319 12.96687317 C85.94237228 12.95999985 85.00985138 12.95312653 84.04907227 12.94604492 C82.57819656 12.92374817 82.57819656 12.92374817 81.0776062 12.90100098 C77.82391537 12.85467735 74.57028403 12.82317203 71.31640625 12.79296875 C69.06200156 12.76665127 66.80760192 12.73989707 64.5532074 12.71272278 C59.82286894 12.65822087 55.09252696 12.61145418 50.36206055 12.56958008 C44.29077065 12.51487461 38.2200138 12.43738842 32.14906406 12.35363293 C27.4918423 12.29251268 22.83455723 12.24531727 18.17713737 12.20217323 C15.93832004 12.17938724 13.69954641 12.15179494 11.46084785 12.11937523 C8.33394264 12.07581442 5.20745765 12.0514102 2.08032227 12.03198242 C1.14982559 12.01498795 0.21932892 11.99799347 -0.73936462 11.98048401 C-2.01595947 11.97838425 -2.01595947 11.97838425 -3.31834412 11.97624207 C-4.05778983 11.96869998 -4.79723555 11.96115789 -5.55908871 11.95338726 C-8.03192854 12.41091888 -8.82847068 13.49959255 -10.5 15.3125 C-11.16 15.3125 -11.82 15.3125 -12.5 15.3125 C-12.5 15.9725 -12.5 16.6325 -12.5 17.3125 C-13.16 17.3125 -13.82 17.3125 -14.5 17.3125 C-14.83 18.6325 -15.16 19.9525 -15.5 21.3125 C-20.78 20.9825 -26.06 20.6525 -31.5 20.3125 C-31.5 19.6525 -31.5 18.9925 -31.5 18.3125 C-32.16 18.3125 -32.82 18.3125 -33.5 18.3125 C-34.625 12.5625 -34.625 12.5625 -33.5 10.3125 C-32.84 10.3125 -32.18 10.3125 -31.5 10.3125 C-31.5 9.6525 -31.5 8.9925 -31.5 8.3125 C-28.6875 8.0625 -28.6875 8.0625 -25.5 8.3125 C-23.43364716 10.3075993 -22.63841122 11.70695093 -22 14.5 C-21.835 15.098125 -21.67 15.69625 -21.5 16.3125 C-20.51 16.6425 -19.52 16.9725 -18.5 17.3125 C-18.5 16.6525 -18.5 15.9925 -18.5 15.3125 C-17.84 15.3125 -17.18 15.3125 -16.5 15.3125 C-16.5 14.3225 -16.5 13.3325 -16.5 12.3125 C-13.53166669 9.1642677 -12.05876353 8.34914023 -7.6875 8.0625 C-6.1096875 8.18625 -6.1096875 8.18625 -4.5 8.3125 C-4.54125 7.36375 -4.5825 6.415 -4.625 5.4375 C-4.47005044 1.56376108 -3.91327115 0.48915889 0 0 Z " fill="#3A88B3" transform="translate(133.5,54.6875)"/>
<path d="M0 0 C9.24 0 18.48 0 28 0 C27.33467664 7.31855691 26.93130103 11.52446125 25 18 C23.14608776 26.39935749 21.73816996 35.43452657 23 44 C25.10090607 47.18711921 26.815403 48.87693533 30 51 C31.95919486 51.30196442 31.95919486 51.30196442 34.12350464 51.26069641 C35.38097504 51.27132362 35.38097504 51.27132362 36.66384888 51.28216553 C37.58028168 51.27968811 38.49671448 51.27721069 39.44091797 51.2746582 C40.89256348 51.2823246 40.89256348 51.2823246 42.37353516 51.29014587 C45.57981513 51.30407119 48.78588084 51.30308274 51.9921875 51.30078125 C54.21794719 51.30466686 56.44370613 51.30900124 58.66946411 51.31376648 C63.33842368 51.32123523 68.00730765 51.32093287 72.67626953 51.31567383 C78.66084559 51.30988152 84.64511192 51.32680146 90.62963676 51.3500185 C95.22785249 51.36474837 99.82599353 51.36562849 104.42422867 51.36250877 C106.63064309 51.36302246 108.83706163 51.36826912 111.04345322 51.37832069 C114.12927121 51.39065166 117.21448471 51.38391295 120.30029297 51.37231445 C121.21267731 51.37995819 122.12506165 51.38760193 123.06509399 51.39547729 C127.83448651 51.35583765 131.17592 51.18955437 135 48 C135.4125 47.113125 135.825 46.22625 136.25 45.3125 C138 43 138 43 140.078125 42.57421875 C142.5178473 42.49945307 144.61130734 42.48071899 147 43 C148.0089911 43.99092732 149.00924034 44.99084427 150 46 C151.9788091 46.46153368 151.9788091 46.46153368 154.0625 46.5 C155.361875 46.665 156.66125 46.83 158 47 C160.1519437 50.22791555 160.20086443 51.28400809 160 55 C159.34 55 158.68 55 158 55 C158 55.66 158 56.32 158 57 C152.72 58.32 152.72 58.32 149.75 57 C147.37657552 54.28751487 146.95428117 51.43541221 146 48 C145.01 47.67 144.02 47.34 143 47 C142.731875 47.639375 142.46375 48.27875 142.1875 48.9375 C141 51 141 51 138 52 C138 52.66 138 53.32 138 54 C131.91673574 58.34518876 125.89721837 58.14900372 118.71508789 58.14526367 C117.78765274 58.14862228 116.86021759 58.1519809 115.90467834 58.15544128 C112.84399063 58.16492728 109.78335774 58.16689311 106.72265625 58.16796875 C104.59183225 58.17118259 102.46100847 58.17454676 100.33018494 58.17805481 C95.86570728 58.18403992 91.40124896 58.1858953 86.93676758 58.18530273 C81.21921542 58.18520106 75.50178731 58.19886137 69.78426456 58.21607494 C65.38418509 58.22719802 60.9841356 58.22922186 56.5840435 58.22869301 C54.47614552 58.22987235 52.36824675 58.23429153 50.26036263 58.24202538 C47.31158902 58.25183282 44.36308467 58.24894433 41.41430664 58.24291992 C40.54606262 58.24853943 39.6778186 58.25415894 38.78326416 58.25994873 C31.36612321 58.22148206 26.07470822 56.76673984 20.546875 51.69140625 C16.13155271 46.86354122 15.77684863 41.94677766 15.84643555 35.75976562 C16.09952254 31.21144233 16.95673585 26.82955802 17.875 22.375 C18.13603516 21.04082031 18.13603516 21.04082031 18.40234375 19.6796875 C19.45115513 14.39678573 20.69058637 9.2376545 22 4 C15.73 4 9.46 4 3 4 C2.67 5.32 2.34 6.64 2 8 C1 9 1 9 -2 9.125 C-5 9 -5 9 -6 8 C-6.04080783 6.00041636 -6.04254356 3.99954746 -6 2 C-5.67 2.99 -5.34 3.98 -5 5 C-3.35 5.33 -1.7 5.66 0 6 C0 4.02 0 2.04 0 0 Z " fill="#254E79" transform="translate(85,100)"/>
<path d="M0 0 C0.74900574 0.00141495 1.49801147 0.0028299 2.26971436 0.00428772 C4.65380912 0.00986966 7.03780878 0.0224188 9.421875 0.03515625 C11.04166531 0.04017359 12.66145709 0.04473609 14.28125 0.04882812 C18.24482812 0.05983317 22.20833545 0.07708534 26.171875 0.09765625 C25.68608957 3.2205626 25.1732738 6.09345984 24.171875 9.09765625 C23.30385254 9.1227124 22.43583008 9.14776855 21.54150391 9.17358398 C18.32474337 9.26865109 15.10814651 9.36788828 11.89160156 9.4699707 C10.4987491 9.51331471 9.10584369 9.55499021 7.71289062 9.5949707 C5.71210849 9.65268557 3.71151641 9.71687494 1.7109375 9.78125 C0.50646973 9.81790771 -0.69799805 9.85456543 -1.93896484 9.89233398 C-4.76808867 9.90818612 -4.76808867 9.90818612 -6.828125 11.09765625 C-6.828125 12.08765625 -6.828125 13.07765625 -6.828125 14.09765625 C-5.76899902 14.13524048 -5.76899902 14.13524048 -4.68847656 14.17358398 C-1.48484991 14.28972994 1.71849618 14.41237228 4.921875 14.53515625 C6.03304687 14.57447266 7.14421875 14.61378906 8.2890625 14.65429688 C9.35898437 14.69619141 10.42890625 14.73808594 11.53125 14.78125 C13.00803223 14.83623657 13.00803223 14.83623657 14.51464844 14.89233398 C16.86111051 15.07364367 18.91905912 15.44097444 21.171875 16.09765625 C21.171875 16.75765625 21.171875 17.41765625 21.171875 18.09765625 C22.161875 18.09765625 23.151875 18.09765625 24.171875 18.09765625 C25.33090273 24.10352723 25.46225 27.64797266 22.171875 33.09765625 C16.23288239 38.75871571 10.45277828 39.25454574 2.46484375 39.1953125 C1.37675163 39.19319008 1.37675163 39.19319008 0.26667786 39.19102478 C-2.0357995 39.18545556 -4.33817735 39.17290886 -6.640625 39.16015625 C-8.20768088 39.15513727 -9.7747383 39.15057506 -11.34179688 39.14648438 C-15.17061089 39.13549623 -18.99935111 39.11825298 -22.828125 39.09765625 C-22.168125 35.79765625 -21.508125 32.49765625 -20.828125 29.09765625 C-9.938125 28.76765625 0.951875 28.43765625 12.171875 28.09765625 C12.171875 26.44765625 12.171875 24.79765625 12.171875 23.09765625 C11.41044189 23.12384033 10.64900879 23.15002441 9.86450195 23.17700195 C6.40467065 23.2811264 2.94516915 23.34603354 -0.515625 23.41015625 C-1.71380859 23.45205078 -2.91199219 23.49394531 -4.14648438 23.53710938 C-12.85327766 23.65837391 -12.85327766 23.65837391 -15.74072266 21.99755859 C-17.09765625 20.640625 -17.09765625 20.640625 -18.828125 18.09765625 C-19.158125 17.76765625 -19.488125 17.43765625 -19.828125 17.09765625 C-20.46889427 11.71519435 -18.95353749 8.32552588 -15.828125 4.09765625 C-11.13085359 -0.3060357 -6.16593121 -0.04401292 0 0 Z " fill="#55CBE2" transform="translate(601.828125,99.90234375)"/>
<path d="M0 0 C0.74617584 0.0028299 1.49235168 0.00565979 2.26113892 0.00857544 C4.62478238 0.01969563 6.98803518 0.04478429 9.3515625 0.0703125 C10.96223408 0.08035288 12.57291165 0.08947688 14.18359375 0.09765625 C18.11473194 0.1196081 22.04558117 0.15408065 25.9765625 0.1953125 C25.1015625 8.0703125 25.1015625 8.0703125 23.9765625 9.1953125 C21.75968256 9.35405205 19.53800952 9.44665087 17.31640625 9.51171875 C16.65193985 9.53249985 15.98747345 9.55328094 15.3028717 9.57469177 C13.17337707 9.64024908 11.04375582 9.69910035 8.9140625 9.7578125 C7.47329403 9.80099189 6.03253851 9.84460599 4.59179688 9.88867188 C1.0535221 9.99593643 -2.48489619 10.09718621 -6.0234375 10.1953125 C-6.3534375 11.5153125 -6.6834375 12.8353125 -7.0234375 14.1953125 C-6.38841309 14.21513184 -5.75338867 14.23495117 -5.09912109 14.25537109 C-2.19850424 14.35112372 0.70144155 14.46059796 3.6015625 14.5703125 C5.10009766 14.61671875 5.10009766 14.61671875 6.62890625 14.6640625 C12.49994198 14.89734869 17.68953772 15.22309763 22.8515625 18.3203125 C24.71266949 21.42215749 24.38906633 24.71946052 23.9765625 28.1953125 C22.9765625 31.1953125 22.9765625 31.1953125 21.9765625 33.1953125 C21.3165625 33.1953125 20.6565625 33.1953125 19.9765625 33.1953125 C19.9765625 33.8553125 19.9765625 34.5153125 19.9765625 35.1953125 C15.60795264 38.7948895 11.55051844 38.59161121 6.17578125 38.48828125 C5.33940628 38.48403641 4.50303131 38.47979156 3.64131165 38.47541809 C0.98189485 38.45868614 -1.6767515 38.42104476 -4.3359375 38.3828125 C-6.14386923 38.36775854 -7.95181289 38.35407138 -9.75976562 38.34179688 C-14.18128439 38.30880066 -18.60223052 38.25705678 -23.0234375 38.1953125 C-22.1484375 30.3203125 -22.1484375 30.3203125 -21.0234375 29.1953125 C-18.75671239 29.04862092 -16.4856754 28.9677728 -14.21484375 28.9140625 C-13.1919651 28.88644836 -13.1919651 28.88644836 -12.14842224 28.85827637 C-9.96101735 28.79936311 -7.77353307 28.74662736 -5.5859375 28.6953125 C-2.71207109 28.62773669 0.16154148 28.55403133 3.03515625 28.4765625 C4.95799438 28.43112305 4.95799438 28.43112305 6.91967773 28.38476562 C9.89195902 28.40054358 9.89195902 28.40054358 11.9765625 27.1953125 C11.4815625 25.7103125 11.4815625 25.7103125 10.9765625 24.1953125 C10.21512939 24.19120361 9.45369629 24.18709473 8.66918945 24.18286133 C5.20836584 24.1499011 1.74929679 24.07925196 -1.7109375 24.0078125 C-2.90912109 24.00201172 -4.10730469 23.99621094 -5.34179688 23.99023438 C-15.2628417 23.74151737 -15.2628417 23.74151737 -18.328125 20.86328125 C-20.55315043 17.36168593 -20.5339604 15.27949571 -20.0234375 11.1953125 C-19.0234375 8.2578125 -19.0234375 8.2578125 -18.0234375 6.1953125 C-17.3634375 6.1953125 -16.7034375 6.1953125 -16.0234375 6.1953125 C-16.0234375 5.5353125 -16.0234375 4.8753125 -16.0234375 4.1953125 C-15.3634375 4.1953125 -14.7034375 4.1953125 -14.0234375 4.1953125 C-14.0234375 3.5353125 -14.0234375 2.8753125 -14.0234375 2.1953125 C-9.27798511 0.31920341 -5.04136207 -0.07301367 0 0 Z " fill="#285C87" transform="translate(402.0234375,99.8046875)"/>
<path d="M0 0 C4.29 0 8.58 0 13 0 C11.91505617 7.01040626 10.64881957 13.85022494 8.84765625 20.7109375 C8.21371889 23.17073131 7.62123005 25.62550488 7.05859375 28.1015625 C6.81085205 29.16358887 6.81085205 29.16358887 6.55810547 30.24707031 C6.236687 31.62711139 5.92396609 33.00921835 5.62158203 34.39355469 C4.54086558 38.94285632 2.96032233 42.37121779 0 46 C-0.99 46 -1.98 46 -3 46 C-3 46.66 -3 47.32 -3 48 C-8.35698334 50.66466125 -12.39832489 51.41908735 -18.33984375 51.29296875 C-19.10680069 51.28872391 -19.87375763 51.28447906 -20.66395569 51.28010559 C-23.08884332 51.2634507 -25.51286798 51.22582553 -27.9375 51.1875 C-29.59178478 51.17243601 -31.24608273 51.15875062 -32.90039062 51.14648438 C-36.93392103 51.11359077 -40.96681473 51.06190249 -45 51 C-44.67 48.03 -44.34 45.06 -44 42 C-43.21874756 41.98541748 -42.43749512 41.97083496 -41.63256836 41.95581055 C-38.06706632 41.88099502 -34.50246623 41.78444367 -30.9375 41.6875 C-29.70837891 41.66494141 -28.47925781 41.64238281 -27.21289062 41.61914062 C-18.09137652 41.55737909 -18.09137652 41.55737909 -10 38 C-6.2325551 32.31995615 -5.04378667 25.60618554 -3.875 19 C-3.56083286 17.3123253 -3.2457342 15.62482373 -2.9296875 13.9375 C-2.77983398 13.12410156 -2.62998047 12.31070313 -2.47558594 11.47265625 C-1.73616125 7.6282552 -0.86957318 3.81688757 0 0 Z " fill="#1D426A" transform="translate(311,87)"/>
<path d="M0 0 C3.87360504 -0.07558065 7.74691006 -0.1292563 11.62109375 -0.16479492 C13.56786238 -0.18685261 15.51442765 -0.22501918 17.4609375 -0.26367188 C39.33141462 -0.43104798 39.33141462 -0.43104798 46.625 5.375 C53 12.42105263 53 12.42105263 53 16 C53.825 16.0825 54.65 16.165 55.5 16.25 C61.97880016 17.63831432 67.72662036 21.04496527 73 25 C73 25.66 73 26.32 73 27 C73.66 27 74.32 27 75 27 C78.09042536 29.99953049 78.96403323 31.45150679 79.25 35.8125 C79.1675 36.864375 79.085 37.91625 79 39 C78.01 39.495 78.01 39.495 77 40 C76.505 36.535 76.505 36.535 76 33 C73.36 33 70.72 33 68 33 C67.34 35.31 66.68 37.62 66 40 C65.01 40 64.02 40 63 40 C63 40.66 63 41.32 63 42 C62.34 42 61.68 42 61 42 C61 42.66 61 43.32 61 44 C57.93466836 45.53266582 54.73245728 45.10276471 51.375 45.0625 C50.66859375 45.05798828 49.9621875 45.05347656 49.234375 45.04882812 C47.48954725 45.03703875 45.744763 45.01910324 44 45 C43.84927742 40.21305077 44.29366288 36.23378055 45.5625 31.625 C47.61672549 23.13549941 47.03250304 16.74240583 43 9 C42.34 8.67 41.68 8.34 41 8 C41 7.34 41 6.68 41 6 C40.46375 5.87625 39.9275 5.7525 39.375 5.625 C37 5 37 5 34.52734375 3.99609375 C29.74304026 2.64504459 25.13732993 2.57397816 20.1875 2.4375 C13.40373789 2.22045656 6.73803222 1.8379259 0 1 C0 0.67 0 0.34 0 0 Z " fill="#F9FCFD" transform="translate(194,59)"/>
<path d="M0 0 C12.44766259 -0.1157695 24.89519744 -0.2046525 37.34328842 -0.25906086 C43.12325789 -0.28517217 48.90285947 -0.32059896 54.68261719 -0.37719727 C60.25878777 -0.4314612 65.83460416 -0.46140897 71.41101837 -0.47438622 C73.54015938 -0.48363612 75.66928066 -0.50169886 77.79827118 -0.52865028 C80.77707548 -0.56486535 83.75440998 -0.56994843 86.73339844 -0.56762695 C88.05833313 -0.59459152 88.05833313 -0.59459152 89.41003418 -0.62210083 C95.39558119 -0.57151342 95.39558119 -0.57151342 98.5244751 2.38703918 C100.08726301 5.15453132 100.84893839 6.82770624 101 10 C100.52949693 11.66662642 100.05581806 13.33246174 99.56152344 14.9921875 C98.56501449 18.55535687 97.89399384 22.18268508 97.1875 25.8125 C97.0215332 26.65329102 96.85556641 27.49408203 96.68457031 28.36035156 C94.4151837 39.89882919 92.20760888 51.44957228 90 63 C88.68 63 87.36 63 86 63 C85.505 64.98 85.505 64.98 85 67 C83.78824567 63.45083812 84.20834928 60.8847676 84.9609375 57.24609375 C85.18523437 56.14458984 85.40953125 55.04308594 85.640625 53.90820312 C86.00414062 52.19020508 86.00414062 52.19020508 86.375 50.4375 C86.60960937 49.28830078 86.84421875 48.13910156 87.0859375 46.95507812 C88.82316868 38.53049395 88.82316868 38.53049395 90 35 C90.50472493 30.67873569 90.79455218 26.33770945 91.125 22 C91.22425781 20.79859375 91.32351562 19.5971875 91.42578125 18.359375 C91.55919922 16.63460937 91.55919922 16.63460937 91.6953125 14.875 C91.77797363 13.82054688 91.86063477 12.76609375 91.94580078 11.6796875 C92.15191865 8.89684395 92.15191865 8.89684395 91 6 C89.19982422 6.10828125 89.19982422 6.10828125 87.36328125 6.21875 C69.52329543 7.23559301 51.82171471 7.41162097 34 6 C33.67 6.66 33.34 7.32 33 8 C32 5 32 5 33 1 C22.11 1 11.22 1 0 1 C0 0.67 0 0.34 0 0 Z " fill="#3686B2" transform="translate(130,72)"/>
<path d="M0 0 C1.01771484 0.01353516 2.03542969 0.02707031 3.08398438 0.04101562 C5.57705381 0.07612928 8.06984807 0.12992806 10.5625 0.1875 C9.5725 3.4875 8.5825 6.7875 7.5625 10.1875 C6.38171875 10.22488281 5.2009375 10.26226562 3.984375 10.30078125 C2.42705212 10.36645149 0.86976186 10.43289847 -0.6875 10.5 C-1.46480469 10.52255859 -2.24210937 10.54511719 -3.04296875 10.56835938 C-6.30960831 10.72191935 -8.86518588 10.9262663 -11.859375 12.29296875 C-15.87439263 17.11297754 -16.1070132 24.57520857 -17.0625 30.625 C-17.1965625 31.45193359 -17.330625 32.27886719 -17.46875 33.13085938 C-17.79540775 35.14913765 -18.11698215 37.16823757 -18.4375 39.1875 C-22.7275 39.1875 -27.0175 39.1875 -31.4375 39.1875 C-30.86951792 33.28048632 -29.62819264 27.76158634 -28.125 22.0234375 C-27.34291226 19.02707436 -27.34291226 19.02707436 -26.9375 15.25 C-26.39254816 11.91216997 -25.47318931 9.87460989 -23.4375 7.1875 C-22.7775 7.1875 -22.1175 7.1875 -21.4375 7.1875 C-21.4375 6.5275 -21.4375 5.8675 -21.4375 5.1875 C-20.4475 5.1875 -19.4575 5.1875 -18.4375 5.1875 C-18.4375 4.5275 -18.4375 3.8675 -18.4375 3.1875 C-12.23412991 -0.12734432 -6.94503869 -0.17622414 0 0 Z " fill="#2D6793" transform="translate(460.4375,98.8125)"/>
<path d="M0 0 C0.8470752 0.15847412 1.69415039 0.31694824 2.56689453 0.48022461 C6.05075847 1.00768488 9.40887851 1.20735464 12.9296875 1.31640625 C14.86328125 1.37924805 14.86328125 1.37924805 16.8359375 1.44335938 C18.18228909 1.48316028 19.52864329 1.52287273 20.875 1.5625 C22.24480333 1.60575183 23.61459521 1.64936812 24.984375 1.69335938 C28.32282157 1.79915522 31.661339 1.90124372 35 2 C34.67 2.66 34.34 3.32 34 4 C20.14 3.505 20.14 3.505 6 3 C6 4.98 6 6.96 6 9 C4.35 8.67 2.7 8.34 1 8 C1 8.99 1 9.98 1 11 C2.98 11 4.96 11 7 11 C7.66 9.68 8.32 8.36 9 7 C15.27 7 21.54 7 28 7 C26.88095238 15.95238095 26.88095238 15.95238095 26.02734375 20.0234375 C25.85009766 20.9 25.67285156 21.7765625 25.49023438 22.6796875 C25.12312302 24.46984183 24.75076368 26.25892833 24.37304688 28.046875 C22.7071175 36.37041956 21.34384943 44.58497922 25.73046875 52.2421875 C28.19247183 55.65111485 30.96263298 58.40376265 35.10514832 59.61607361 C39.20006475 60.15915721 43.25317621 60.1783214 47.38012695 60.20532227 C48.31719986 60.21522186 49.25427277 60.22512146 50.21974182 60.23532104 C53.30922949 60.26684417 56.39873251 60.29165714 59.48828125 60.31640625 C61.63348281 60.33698371 63.77868038 60.35798039 65.9238739 60.37937927 C71.56430837 60.43451813 77.20477894 60.48396349 82.84527588 60.53222656 C88.60326339 60.58250138 94.36119862 60.63815622 100.11914062 60.69335938 C111.41271573 60.80084082 122.70633627 60.90230799 134 61 C134 61.33 134 61.66 134 62 C124.24467073 62.1557301 114.4892612 62.30385314 104.73368073 62.4429636 C100.20097138 62.50782227 95.66832591 62.57504372 91.13574219 62.64819336 C56.48893298 63.20380947 56.48893298 63.20380947 41.84375 62.71484375 C40.90486938 62.69071915 39.96598877 62.66659454 38.99865723 62.64173889 C33.97645361 62.41914807 30.35415837 61.76262367 26 59 C19.93071504 51.66382546 18.53930864 42.21382722 19 33 C19.5 30 19.5 30 20 28 C19.67 28 19.34 28 19 28 C19 26.35 19 24.7 19 23 C17.88625 22.855625 16.7725 22.71125 15.625 22.5625 C12 22 12 22 10 21 C9.59270772 18.67843403 9.25561323 16.3431213 9 14 C7.95199219 13.94392578 7.95199219 13.94392578 6.8828125 13.88671875 C5.97273438 13.82097656 5.06265625 13.75523438 4.125 13.6875 C3.22007813 13.62949219 2.31515625 13.57148437 1.3828125 13.51171875 C-1 13 -1 13 -3 10 C-3.37478243 6.47704517 -3.41127245 4.65118137 -1.5 1.625 C-1.005 1.08875 -0.51 0.5525 0 0 Z " fill="#F4F9FA" transform="translate(79,97)"/>
<path d="M0 0 C1.41345703 -0.03673828 1.41345703 -0.03673828 2.85546875 -0.07421875 C9.2665414 -0.10082071 14.67024273 0.82212174 20.125 4.375 C22.63052308 8.13328462 22.49695709 9.91151494 22.125 14.375 C21.1477967 17.92003679 20.11662184 20.72336279 16.9375 22.8125 C16.339375 22.998125 15.74125 23.18375 15.125 23.375 C14.30773437 22.55515625 13.49046875 21.7353125 12.6484375 20.890625 C8.79308694 17.6842396 5.58766769 17.81511381 0.75 18.125 C-0.69510189 18.1873785 -2.14043158 18.24469067 -3.5859375 18.296875 C-4.28944336 18.32330078 -4.99294922 18.34972656 -5.71777344 18.37695312 C-9.16053637 18.37383609 -12.47270709 17.88188788 -15.875 17.375 C-15.215 15.725 -14.555 14.075 -13.875 12.375 C-13.215 12.375 -12.555 12.375 -11.875 12.375 C-11.875 9.405 -11.875 6.435 -11.875 3.375 C-14.185 3.705 -16.495 4.035 -18.875 4.375 C-17.875 2.375 -17.875 2.375 -14.9921875 1.2734375 C-10.04040564 -0.01185417 -5.0881295 0.00690384 0 0 Z " fill="#4AB7D5" transform="translate(554.875,98.625)"/>
<path d="M0 0 C11.17061224 -0.09292776 22.34113159 -0.16388036 33.51205254 -0.20724869 C38.69990629 -0.2280697 43.8874944 -0.2562867 49.07519531 -0.30175781 C54.08728754 -0.34541174 59.09912521 -0.36917832 64.11139297 -0.37950897 C66.01785409 -0.38686537 67.92430222 -0.40123032 69.83065414 -0.42292023 C89.01759925 -0.632422 89.01759925 -0.632422 97 4 C97 4.66 97 5.32 97 6 C97.99 6.33 98.98 6.66 100 7 C101.16796875 9.07421875 101.16796875 9.07421875 102.1875 11.6875 C102.53167969 12.53699219 102.87585938 13.38648437 103.23046875 14.26171875 C104.73118467 19.60182972 103.89163316 24.14004583 102.5625 29.4375 C101.42353625 34.00986173 100.67300955 38.28893317 100 43 C108.415 42.505 108.415 42.505 117 42 C117 41.34 117 40.68 117 40 C117.66 40 118.32 40 119 40 C119 39.34 119 38.68 119 38 C119.99 38 120.98 38 122 38 C121.95875 37.05125 121.9175 36.1025 121.875 35.125 C122 32 122 32 124 30 C127.13704316 29.666272 129.16554166 29.47150972 131.875 31.1875 C133.42229478 33.68036381 133.50405716 35.11967335 133 38 C131.4375 39.8125 131.4375 39.8125 129 41 C127.88625 40.95875 126.7725 40.9175 125.625 40.875 C121.8414431 40.59239612 121.8414431 40.59239612 119.515625 43.48828125 C115.07034123 47.41802883 109.73614435 46.53708398 104.125 46.3125 C103.05507812 46.28994141 101.98515625 46.26738281 100.8828125 46.24414062 C98.25375593 46.18545633 95.62761418 46.1034118 93 46 C92.85247719 41.82018713 93.28915246 38.49131227 94.5 34.5 C96.23775994 27.8079533 98.45106951 18.47547136 94.9453125 12.07421875 C93.513064 10.55052631 93.513064 10.55052631 91 9 C90.01 8.01 90.01 8.01 89 7 C86.13563176 6.75418157 83.3609686 6.62630619 80.4921875 6.5859375 C79.23125778 6.55688828 79.23125778 6.55688828 77.94485474 6.5272522 C75.25500697 6.46738342 72.56511657 6.42104229 69.875 6.375 C68.05336656 6.3368269 66.2317513 6.29777556 64.41015625 6.2578125 C59.94025148 6.16167602 55.47026221 6.07767231 51 6 C51 5.67 51 5.34 51 5 C51.89831543 4.97494385 52.79663086 4.9498877 53.72216797 4.92407227 C57.05074869 4.82901307 60.37914994 4.72977579 63.70751953 4.62768555 C65.1488762 4.58433769 66.59028418 4.54266248 68.03173828 4.50268555 C70.10204541 4.44497912 72.17209432 4.38128629 74.2421875 4.31640625 C75.4885498 4.27974854 76.73491211 4.24309082 78.01904297 4.20532227 C80.92636942 4.19710521 80.92636942 4.19710521 83 3 C83 2.34 83 1.68 83 1 C55.61 1 28.22 1 0 1 C0 0.67 0 0.34 0 0 Z " fill="#6DD2E5" transform="translate(138,61)"/>
<path d="M0 0 C2.4397223 -0.07476568 4.53318234 -0.09349976 6.921875 0.42578125 C7.9308661 1.41670857 8.93111534 2.41662552 9.921875 3.42578125 C11.9006841 3.88731493 11.9006841 3.88731493 13.984375 3.92578125 C15.9334375 4.17328125 15.9334375 4.17328125 17.921875 4.42578125 C20.0738187 7.6536968 20.12273943 8.70978934 19.921875 12.42578125 C19.261875 12.42578125 18.601875 12.42578125 17.921875 12.42578125 C17.921875 13.08578125 17.921875 13.74578125 17.921875 14.42578125 C12.641875 15.74578125 12.641875 15.74578125 9.671875 14.42578125 C7.29845052 11.71329612 6.87615617 8.86119346 5.921875 5.42578125 C4.931875 5.09578125 3.941875 4.76578125 2.921875 4.42578125 C2.65375 5.06515625 2.385625 5.70453125 2.109375 6.36328125 C0.921875 8.42578125 0.921875 8.42578125 -2.078125 9.42578125 C-2.078125 10.08578125 -2.078125 10.74578125 -2.078125 11.42578125 C-8.1968902 15.79632782 -14.23684295 15.56882025 -21.45825195 15.53930664 C-22.39532486 15.53945267 -23.33239777 15.53959869 -24.29786682 15.53974915 C-27.38740372 15.53905389 -30.47687992 15.53127957 -33.56640625 15.5234375 C-35.71160347 15.52157195 -37.85680111 15.52014869 -40.0019989 15.51914978 C-45.64247824 15.51533542 -51.28293174 15.50551434 -56.92340088 15.4944458 C-62.68135224 15.48420845 -68.43930778 15.47964718 -74.19726562 15.47460938 C-85.49089675 15.46389112 -96.78450873 15.44682766 -108.078125 15.42578125 C-108.078125 15.09578125 -108.078125 14.76578125 -108.078125 14.42578125 C-107.45616241 14.41547379 -106.83419983 14.40516632 -106.19338989 14.39454651 C-99.73737791 14.2866159 -93.28150931 14.17200721 -86.82568359 14.0534668 C-84.41425569 14.01007475 -82.00279621 13.96840288 -79.59130859 13.9284668 C-76.13108794 13.87086756 -72.67102688 13.80714346 -69.2109375 13.7421875 C-68.12757111 13.72547501 -67.04420471 13.70876251 -65.92800903 13.69154358 C-64.42667923 13.66162575 -64.42667923 13.66162575 -62.89501953 13.63110352 C-62.01121613 13.61555923 -61.12741272 13.60001495 -60.21682739 13.58399963 C-58.0261528 13.55813124 -58.0261528 13.55813124 -56.078125 12.42578125 C-56.078125 11.76578125 -56.078125 11.10578125 -56.078125 10.42578125 C-72.908125 10.42578125 -89.738125 10.42578125 -107.078125 10.42578125 C-107.078125 10.09578125 -107.078125 9.76578125 -107.078125 9.42578125 C-105.2719445 9.41698189 -105.2719445 9.41698189 -103.42927551 9.40800476 C-92.08455345 9.35080519 -80.74002358 9.2780579 -69.39549732 9.19006634 C-63.5630767 9.14532862 -57.73072649 9.10607985 -51.89819336 9.0793457 C-46.27003831 9.05334689 -40.64215371 9.01296839 -35.01416588 8.96259499 C-32.86640472 8.94590317 -30.71859677 8.93440334 -28.5707798 8.92816734 C-25.5635807 8.91855161 -22.55707712 8.89052198 -19.55004883 8.8581543 C-18.21648094 8.86030693 -18.21648094 8.86030693 -16.85597229 8.86250305 C-12.14153387 8.7906841 -8.86690562 8.55608139 -5.078125 5.42578125 C-4.665625 4.53890625 -4.253125 3.65203125 -3.828125 2.73828125 C-2.078125 0.42578125 -2.078125 0.42578125 0 0 Z " fill="#57BBD7" transform="translate(225.078125,142.57421875)"/>
<path d="M0 0 C5.08777105 -0.97425403 10.34939572 -1.79584009 14.859375 1.25976562 C18.94209204 4.83214304 22.42754207 8.93031646 26 13 C26.66 13.33 27.32 13.66 28 14 C27.94996812 16.74675041 27.54933411 18.46165258 25.55957031 20.41162109 C23.62186672 21.90490199 21.64502366 23.30765112 19.625 24.6875 C18.93921875 25.17283203 18.2534375 25.65816406 17.546875 26.15820312 C11.90333064 30.13832925 8.39431988 32.29692093 1.3125 32.125 C0.61060547 32.11597656 -0.09128906 32.10695312 -0.81445312 32.09765625 C-2.54311525 32.07413704 -4.27160145 32.03826713 -6 32 C-6 31.34 -6 30.68 -6 30 C-5.34 30 -4.68 30 -4 30 C-3.7525 29.40703125 -3.505 28.8140625 -3.25 28.203125 C-1.81031137 25.6656738 -0.34848507 24.45955898 2 22.75 C2.70125 22.22921875 3.4025 21.7084375 4.125 21.171875 C6 20 6 20 8 20 C8 19.34 8 18.68 8 18 C8.99 18 9.98 18 11 18 C8.46652752 13.21455199 6.02754702 9.70958278 2 6 C1.34 5.34 0.68 4.68 0 4 C0 2.68 0 1.36 0 0 Z " fill="#F4F7F9" transform="translate(140,91)"/>
<path d="M0 0 C0.99 0 1.98 0 3 0 C3.33 0.99 3.66 1.98 4 3 C5.72978556 4.09271577 5.72978556 4.09271577 7.8125 4.9375 C11.21435932 6.51976015 13.47163757 8.17990344 16 11 C16.66 11.33 17.32 11.66 18 12 C18 12.66 18 13.32 18 14 C18.7425 14.2475 19.485 14.495 20.25 14.75 C23.24612487 16.11187494 24.80168875 17.58185762 27 20 C27.5775 20.5775 28.155 21.155 28.75 21.75 C29.36875 22.36875 29.36875 22.36875 30 23 C29 24 29 24 26.68334961 24.11352539 C25.68311768 24.10828857 24.68288574 24.10305176 23.65234375 24.09765625 C22.57275391 24.09443359 21.49316406 24.09121094 20.38085938 24.08789062 C19.24455078 24.07951172 18.10824219 24.07113281 16.9375 24.0625 C15.79732422 24.05798828 14.65714844 24.05347656 13.48242188 24.04882812 C10.65489649 24.03699747 7.8274736 24.0205141 5 24 C5 24.66 5 25.32 5 26 C13.25 26 21.5 26 30 26 C30 26.33 30 26.66 30 27 C25.78250781 27.07419134 21.56536189 27.1286204 17.34741211 27.16479492 C15.91277448 27.17987589 14.47818292 27.2003438 13.04370117 27.22631836 C10.98084141 27.26273437 8.91859142 27.27973243 6.85546875 27.29296875 C5.61434326 27.3086792 4.37321777 27.32438965 3.09448242 27.34057617 C0 27 0 27 -1.8659668 25.60668945 C-5.38925849 20.61491709 -4.09417031 15.0206842 -3.125 9.3125 C-2.5094873 5.85878985 -1.71100951 3.06975235 0 0 Z " fill="#132F54" transform="translate(116,119)"/>
<path d="M0 0 C1.05477539 -0.01160156 1.05477539 -0.01160156 2.13085938 -0.0234375 C6.21648718 -0.00812118 9.38891173 0.43836743 13.0625 2.25 C12.30790096 8.53832537 11.50114142 14.45626726 7.0625 19.25 C3.19479545 20.53923485 -0.47187316 20.39505706 -4.5 20.375 C-5.28052734 20.37886719 -6.06105469 20.38273437 -6.86523438 20.38671875 C-12.68414502 20.37667749 -12.68414502 20.37667749 -14.9375 19.25 C-14.9375 15.29 -14.9375 11.33 -14.9375 7.25 C-14.2775 7.25 -13.6175 7.25 -12.9375 7.25 C-12.855 6.46625 -12.7725 5.6825 -12.6875 4.875 C-11.9375 2.25 -11.9375 2.25 -10.38671875 1.1015625 C-6.93925372 -0.09707766 -3.60382429 -0.03942196 0 0 Z M-2.9375 9.25 C-2.6075 9.91 -2.2775 10.57 -1.9375 11.25 C-1.2775 11.25 -0.6175 11.25 0.0625 11.25 C0.0625 10.59 0.0625 9.93 0.0625 9.25 C-0.9275 9.25 -1.9175 9.25 -2.9375 9.25 Z " fill="#F8FBFC" transform="translate(497.9375,108.75)"/>
<path d="M0 0 C94.71 0 189.42 0 287 0 C287.33 0.66 287.66 1.32 288 2 C287.35343665 1.99907821 286.7068733 1.99815641 286.04071712 1.99720669 C270.14892692 1.97491127 254.25714231 1.95847331 238.36534023 1.94818783 C230.67950814 1.94307889 222.99368662 1.93614224 215.30786133 1.92456055 C208.59192762 1.91444539 201.87600158 1.90810757 195.16006047 1.90591151 C191.61946317 1.90463225 188.07888777 1.90173117 184.53829765 1.89426994 C169.87922723 1.8645164 155.24958239 2.0000798 140.60107422 2.53344727 C129.92169692 2.92057073 119.37478831 3.02432046 108.69921875 2.5625 C105.65831319 2.45193138 102.61710604 2.35301961 99.57568359 2.2578125 C98.80179826 2.23341599 98.02791292 2.20901947 97.23057652 2.18388367 C87.84869953 1.90818257 78.46717206 1.91772283 69.08203125 1.9375 C68.20755215 1.93903076 67.33307304 1.94056152 66.43209457 1.94213867 C60.22553335 1.95416136 54.01902505 1.97607462 47.8125 2 C41.50128732 2.02386145 35.19009828 2.04403033 28.87885094 2.05593872 C26.40119726 2.06232181 23.92362636 2.0747937 21.44599915 2.08764648 C14.23248436 2.11099743 7.15576585 2.03897936 0 1 C0 0.67 0 0.34 0 0 Z " fill="#B0E4F0" transform="translate(279,151)"/>
<path d="M0 0 C10.89 0 21.78 0 33 0 C32.67 2.97 32.34 5.94 32 9 C21.11 9 10.22 9 -1 9 C-0.67 6.03 -0.34 3.06 0 0 Z " fill="#F2F5F8" transform="translate(169,123)"/>
<path d="M0 0 C0.47050781 0.42152344 0.94101563 0.84304687 1.42578125 1.27734375 C2.04839844 1.82519531 2.67101562 2.37304688 3.3125 2.9375 C3.92738281 3.48277344 4.54226562 4.02804688 5.17578125 4.58984375 C8.32811573 7.02665905 11.17815648 7.13888172 15.0222168 7.20532227 C16.55346443 7.2352401 16.55346443 7.2352401 18.11564636 7.26576233 C19.21572525 7.28247482 20.31580414 7.29918732 21.44921875 7.31640625 C23.14084892 7.3475779 23.14084892 7.3475779 24.86665344 7.37937927 C28.4735396 7.44482847 32.08049929 7.50373844 35.6875 7.5625 C38.13086702 7.60568961 40.57422656 7.64930404 43.01757812 7.69335938 C49.01164074 7.80050516 55.00577671 7.90228029 61 8 C61.495 9.485 61.495 9.485 62 11 C58.99557393 12.00147536 56.88207554 12.1618276 53.73754883 12.22460938 C52.6624556 12.24712769 51.58736237 12.269646 50.47969055 12.29284668 C45.55806637 12.3639654 40.63659082 12.42137417 35.71459961 12.45996094 C33.12196374 12.48656372 30.52943361 12.52748331 27.93725586 12.58300781 C24.19341373 12.66224257 20.45158963 12.69528956 16.70703125 12.71875 C14.97849663 12.76823792 14.97849663 12.76823792 13.21504211 12.81872559 C6.21568886 12.80140789 2.43297574 11.76698067 -2.59907532 6.7989502 C-4 5 -4 5 -5 2 C-3.35 1.34 -1.7 0.68 0 0 Z " fill="#265D8A" transform="translate(108,145)"/>
<path d="M0 0 C10.89 0 21.78 0 33 0 C32.01 0.99 31.02 1.98 30 3 C31.83333333 6.16666667 31.83333333 6.16666667 35 8 C30.55852431 8.85916096 26.37230176 9.11697565 21.8515625 9.09765625 C20.86547501 9.09553383 20.86547501 9.09553383 19.85946655 9.09336853 C17.78126269 9.08781762 15.70317073 9.07527465 13.625 9.0625 C12.20703282 9.05747864 10.78906393 9.05291685 9.37109375 9.04882812 C5.91402678 9.03786437 2.45702433 9.02063421 -1 9 C-0.67 6.03 -0.34 3.06 0 0 Z " fill="#50C7DF" transform="translate(581,129)"/>
<path d="M0 0 C9.96268339 -0.02327434 19.9253602 -0.04099149 29.88806534 -0.05181217 C34.51523048 -0.0570082 39.14237689 -0.06404556 43.76953125 -0.07543945 C48.2434482 -0.0863858 52.71734723 -0.09230148 57.19127655 -0.09487724 C58.88950634 -0.09671048 60.58773527 -0.10028985 62.28595734 -0.10573006 C71.57881786 -0.13428801 80.74706242 -0.00421629 90 1 C87.63366992 3.36633008 87.13363844 3.26107236 83.91748047 3.31884766 C82.63877075 3.34893921 82.63877075 3.34893921 81.33422852 3.37963867 C80.43760498 3.39099854 79.54098145 3.4023584 78.6171875 3.4140625 C77.38174194 3.44052856 77.38174194 3.44052856 76.12133789 3.4675293 C73.03942525 3.53067976 69.95718285 3.57680878 66.875 3.625 C59.98625 3.74875 53.0975 3.8725 46 4 C67.78 4.495 67.78 4.495 90 5 C90 5.33 90 5.66 90 6 C71.28110851 7.19800906 52.7105292 7.48202211 34 6 C33.67 6.66 33.34 7.32 33 8 C32 5 32 5 33 1 C22.11 1 11.22 1 0 1 C0 0.67 0 0.34 0 0 Z " fill="#3480AC" transform="translate(130,72)"/>
<path d="M0 0 C3.32462531 2.8956414 4.30151606 4.69268237 5 9 C5.66 9.33 6.32 9.66 7 10 C7 15.33333333 7 20.66666667 7 26 C7.66 26.33 8.32 26.66 9 27 C1.25 28.125 1.25 28.125 -1 27 C-1 26.34 -1 25.68 -1 25 C-1.99 24.67 -2.98 24.34 -4 24 C-4.83288874 17.74692761 -5.03863773 12.23182639 -4 6 C-3.34 6 -2.68 6 -2 6 C-2 5.01 -2 4.02 -2 3 C-1.34 3 -0.68 3 0 3 C0 2.01 0 1.02 0 0 Z " fill="#378DB8" transform="translate(530,110)"/>
<path d="M0 0 C1.74506836 0.00966797 1.74506836 0.00966797 3.52539062 0.01953125 C4.74033203 0.03628906 5.95527344 0.05304688 7.20703125 0.0703125 C8.43357422 0.07933594 9.66011719 0.08835937 10.92382812 0.09765625 C13.9559242 0.12125233 16.98763063 0.15417409 20.01953125 0.1953125 C19.53374582 3.31821885 19.02093005 6.19111609 18.01953125 9.1953125 C8.44953125 9.1953125 -1.12046875 9.1953125 -10.98046875 9.1953125 C-10.98046875 8.8653125 -10.98046875 8.5353125 -10.98046875 8.1953125 C-9.33046875 7.8653125 -7.68046875 7.5353125 -5.98046875 7.1953125 C-6.97046875 6.5353125 -7.96046875 5.8753125 -8.98046875 5.1953125 C-8.98046875 4.2053125 -8.98046875 3.2153125 -8.98046875 2.1953125 C-5.48710057 -0.13359962 -4.1203901 -0.04019893 0 0 Z " fill="#51D3E7" transform="translate(607.98046875,99.8046875)"/>
<path d="M0 0 C2.91821463 -0.13510253 5.83017652 -0.2341305 8.75 -0.3125 C9.575 -0.35439453 10.4 -0.39628906 11.25 -0.43945312 C17.40034594 -0.56345204 17.40034594 -0.56345204 20.5234375 2.37109375 C22.97664713 6.73884529 23.27418846 8.88496695 22.0625 13.8125 C21.711875 14.864375 21.36125 15.91625 21 17 C20.67 17 20.34 17 20 17 C20 15.35 20 13.7 20 12 C19.34 12 18.68 12 18 12 C17.814375 13.8871875 17.814375 13.8871875 17.625 15.8125 C17.30131941 19.10325263 16.93395001 20.09907498 15 23 C14.95101562 22.02417969 14.90203125 21.04835938 14.8515625 20.04296875 C14.77679688 18.77066406 14.70203125 17.49835938 14.625 16.1875 C14.52058594 14.29064453 14.52058594 14.29064453 14.4140625 12.35546875 C14.23897061 8.87244766 14.23897061 8.87244766 12 6 C9.54018574 5.52264442 9.54018574 5.52264442 6.63232422 5.56762695 C5.51131317 5.54783279 4.39030212 5.52803864 3.23532104 5.50764465 C2.02071198 5.50125473 0.80610291 5.49486481 -0.4453125 5.48828125 C-1.68546112 5.47033005 -2.92560974 5.45237885 -4.20333862 5.43388367 C-7.50116068 5.38880026 -10.79878507 5.35655106 -14.09680176 5.33044434 C-17.46180805 5.30067269 -20.82657733 5.25413089 -24.19140625 5.20898438 C-30.79416179 5.12381922 -37.39693264 5.05556371 -44 5 C-44 4.67 -44 4.34 -44 4 C-32.77570431 2.79950118 -21.52629716 2.6700499 -10.25 2.4375 C-8.28124262 2.39421457 -6.3124925 2.35059744 -4.34375 2.30664062 C0.43742485 2.20060298 5.21867557 2.09905355 10 2 C6.7 1.67 3.4 1.34 0 1 C0 0.67 0 0.34 0 0 Z " fill="#55AFCE" transform="translate(208,72)"/>
<path d="M0 0 C0.920728 0.00022659 1.84145599 0.00045319 2.79008484 0.00068665 C3.78079483 0.0161705 4.77150482 0.03165436 5.79223633 0.04760742 C6.80900955 0.05185226 7.82578278 0.05609711 8.87336731 0.06047058 C12.1239357 0.0772762 15.37388628 0.11493235 18.62426758 0.15307617 C20.82673259 0.16812055 23.02920731 0.18180938 25.23168945 0.1940918 C30.6335933 0.22718581 36.0351363 0.27740394 41.43676758 0.34057617 C41.93176758 2.32057617 41.93176758 2.32057617 42.43676758 4.34057617 C13.44224035 5.56578883 -15.54812815 5.44738559 -44.56323242 5.34057617 C-44.56323242 5.01057617 -44.56323242 4.68057617 -44.56323242 4.34057617 C-42.90553833 4.31870239 -42.90553833 4.31870239 -41.21435547 4.29638672 C-37.11588103 4.23843351 -33.01795775 4.16120098 -28.91992188 4.078125 C-27.1459243 4.04486153 -25.37182052 4.01683399 -23.59765625 3.99414062 C-21.04796067 3.96062015 -18.4992395 3.90830753 -15.94995117 3.85229492 C-14.75918221 3.84271004 -14.75918221 3.84271004 -13.5443573 3.83293152 C-9.42092091 3.91935678 -9.42092091 3.91935678 -6.11486816 1.83483887 C-4.03272797 -0.17031243 -2.85414673 -0.02345874 0 0 Z " fill="#4CA9CB" transform="translate(179.563232421875,61.659423828125)"/>
<path d="M0 0 C34.98 0 69.96 0 106 0 C106 0.33 106 0.66 106 1 C91.48 1.33 76.96 1.66 62 2 C62 2.33 62 2.66 62 3 C47.81 3 33.62 3 19 3 C19 3.66 19 4.32 19 5 C15.42487611 5.08125282 12.44483071 4.86120768 9 4 C7.25309081 3.7856066 5.5025977 3.59892347 3.75 3.4375 C2.41195313 3.31181641 2.41195313 3.31181641 1.046875 3.18359375 C0.37140625 3.12300781 -0.3040625 3.06242188 -1 3 C-0.67 2.01 -0.34 1.02 0 0 Z " fill="#5FCBE2" transform="translate(260,148)"/>
<path d="M0 0 C29.7 0 59.4 0 90 0 C90 0.99 90 1.98 90 3 C82.1476611 4.1079072 74.4768582 4.04235366 66.55859375 3.87890625 C65.18141038 3.85455336 63.80421787 3.83071256 62.42701721 3.80735779 C58.83162893 3.74503025 55.23640599 3.67582315 51.64117432 3.60510254 C47.96072816 3.5339503 44.28016635 3.46941564 40.59960938 3.40429688 C33.39961151 3.27594798 26.1997756 3.14031914 19 3 C19 2.67 19 2.34 19 2 C12.73 1.67 6.46 1.34 0 1 C0 0.67 0 0.34 0 0 Z " fill="#5FCFE4" transform="translate(485,148)"/>
<path d="M0 0 C1.9140625 0.890625 1.9140625 0.890625 2.75 2.66796875 C2.92789063 3.38082031 3.10578125 4.09367188 3.2890625 4.828125 C3.92584551 7.00140552 3.92584551 7.00140552 4.9140625 8.890625 C7.95427618 10.49057882 7.95427618 10.49057882 10.9140625 10.890625 C10.5840625 11.880625 10.2540625 12.870625 9.9140625 13.890625 C-9.45269782 14.01234608 -28.73659328 13.83596718 -48.0859375 12.890625 C-48.0859375 12.560625 -48.0859375 12.230625 -48.0859375 11.890625 C-37.8559375 11.890625 -27.6259375 11.890625 -17.0859375 11.890625 C-17.0859375 11.230625 -17.0859375 10.570625 -17.0859375 9.890625 C-13.77478916 8.76182443 -10.49615493 7.67759825 -7.0859375 6.890625 C-7.0859375 6.230625 -7.0859375 5.570625 -7.0859375 4.890625 C-2.86566216 -0.15025944 -2.86566216 -0.15025944 0 0 Z " fill="#F9FCFD" transform="translate(230.0859375,147.109375)"/>
<path d="M0 0 C9.25895296 -0.02333136 18.51789557 -0.04101982 27.77687168 -0.05181217 C32.07773959 -0.05699602 36.37858715 -0.06401032 40.67944336 -0.07543945 C44.84214918 -0.08643026 49.00483563 -0.09231055 53.16755486 -0.09487724 C54.74328859 -0.09670269 56.31902146 -0.10026604 57.89474678 -0.10573006 C67.97848404 -0.13925589 77.94589918 0.18870599 88 1 C86 4 86 4 83 5 C80.41369776 5.08481773 77.85521944 5.11598229 75.26953125 5.09765625 C74.51911057 5.0962413 73.76868988 5.09482635 72.99552917 5.09336853 C70.6011454 5.0877756 68.20685547 5.07522444 65.8125 5.0625 C64.18815239 5.05748408 62.56380332 5.05292134 60.93945312 5.04882812 C56.95959931 5.03780848 52.97981556 5.02054873 49 5 C49.66 3.68 50.32 2.36 51 1 C34.17 1 17.34 1 0 1 C0 0.67 0 0.34 0 0 Z " fill="#4BA1C4" transform="translate(118,152)"/>
<path d="M0 0 C1.37188477 -0.01063477 1.37188477 -0.01063477 2.77148438 -0.02148438 C7.7958292 0.02671967 7.7958292 0.02671967 9.8125 0.4375 C11.8125 3.4375 11.8125 3.4375 11.5625 6.1875 C11.315 7.26 11.0675 8.3325 10.8125 9.4375 C10.544375 10.63375 10.27625 11.83 10 13.0625 C8.67315747 16.83352615 8.05782213 18.13852371 4.8125 20.4375 C1.42700134 20.9826259 -1.89209126 20.90442046 -5.3125 20.8125 C-6.23160156 20.81121094 -7.15070313 20.80992187 -8.09765625 20.80859375 C-14.90638951 20.71861049 -14.90638951 20.71861049 -17.1875 18.4375 C-17.19921875 16.1953125 -17.19921875 16.1953125 -16.875 13.5625 C-16.77574219 12.69882813 -16.67648437 11.83515625 -16.57421875 10.9453125 C-16.44660156 10.11773437 -16.31898438 9.29015625 -16.1875 8.4375 C-16.11144531 7.75429687 -16.03539062 7.07109375 -15.95703125 6.3671875 C-13.13316212 -0.71398687 -6.44425285 -0.14259232 0 0 Z M-8.1875 1.4375 C-8.1875 2.0975 -8.1875 2.7575 -8.1875 3.4375 C-9.1775 3.4375 -10.1675 3.4375 -11.1875 3.4375 C-13.0602078 5.07267472 -13.0602078 5.07267472 -14.1875 7.4375 C-14.10716256 10.5706601 -13.17587395 12.46024662 -11.75 15.25 C-8.32757505 18.17158227 -5.98422976 18.03710966 -1.59765625 17.78515625 C1.63937768 17.31822591 3.44287159 16.73307753 5.8125 14.4375 C7.18150354 10.85753741 7.18150354 10.85753741 7.8125 7.4375 C8.4725 7.4375 9.1325 7.4375 9.8125 7.4375 C9.8125 6.4475 9.8125 5.4575 9.8125 4.4375 C9.1525 4.4375 8.4925 4.4375 7.8125 4.4375 C8.1425 3.4475 8.4725 2.4575 8.8125 1.4375 C3.2025 1.4375 -2.4075 1.4375 -8.1875 1.4375 Z " fill="#E7F0F4" transform="translate(352.1875,108.5625)"/>
<path d="M0 0 C1.02083333 0.875 2.04166667 1.75 3.0625 2.625 C4.02349609 3.44291016 4.02349609 3.44291016 5.00390625 4.27734375 C6.27751686 5.37648715 7.53710154 6.49224471 8.77734375 7.62890625 C12.64376896 11.12710049 16.09805742 13.1992864 21 15 C17.1766501 17.54889993 13.99535358 17.36755608 9.5625 17.375 C8.79873047 17.39949219 8.03496094 17.42398438 7.24804688 17.44921875 C3.49928544 17.46879453 1.59826772 17.43239287 -1.5078125 15.1875 C-3.69850658 11.9760113 -3.45994337 9.81095935 -3 6 C-1.5 2.5625 -1.5 2.5625 0 0 Z " fill="#12294B" transform="translate(120,126)"/>
<path d="M0 0 C7.19956829 -0.0235111 14.39912786 -0.0411073 21.59872723 -0.05181217 C24.94433686 -0.05695843 28.28989957 -0.06447435 31.63549805 -0.07543945 C47.45702989 -0.12593054 63.20545994 0.03053373 79 1 C77 3 77 3 74.2918396 3.24050903 C73.14156281 3.23606781 71.99128601 3.23162659 70.80615234 3.22705078 C68.85435562 3.22682419 68.85435562 3.22682419 66.86312866 3.22659302 C65.43739673 3.21637893 64.01166635 3.20594692 62.5859375 3.1953125 C61.13148187 3.19158295 59.67702373 3.1887357 58.2225647 3.18673706 C54.39201944 3.179096 50.56162554 3.15944357 46.73114014 3.1373291 C42.82338509 3.11688078 38.91560561 3.10773752 35.0078125 3.09765625 C27.33847262 3.07619802 19.66925751 3.04205651 12 3 C12 2.67 12 2.34 12 2 C8.04 1.67 4.08 1.34 0 1 C0 0.67 0 0.34 0 0 Z " fill="#4ABDD9" transform="translate(427,148)"/>
<path d="M0 0 C9.57 0 19.14 0 29 0 C28 7 28 7 27 9 C18.42 9 9.84 9 1 9 C1 8.67 1 8.34 1 8 C4.3 7.67 7.6 7.34 11 7 C9.68 6.67 8.36 6.34 7 6 C7 4.35 7 2.7 7 1 C4.69 1 2.38 1 0 1 C0 0.67 0 0.34 0 0 Z " fill="#3DA6CA" transform="translate(541,129)"/>
<path d="M0 0 C3.0625 0.3125 3.0625 0.3125 4.9375 1.5 C6.48479478 3.99286381 6.56655716 5.43217335 6.0625 8.3125 C4.5 10.125 4.5 10.125 2.0625 11.3125 C0.94875 11.27125 -0.165 11.23 -1.3125 11.1875 C-5.0960569 10.90489612 -5.0960569 10.90489612 -7.421875 13.80078125 C-11.86715877 17.73052883 -17.20135565 16.84958398 -22.8125 16.625 C-23.88242188 16.60244141 -24.95234375 16.57988281 -26.0546875 16.55664062 C-28.68374407 16.49795633 -31.30988582 16.4159118 -33.9375 16.3125 C-27.6875 13.1875 -27.6875 13.1875 -23.8046875 12.99609375 C-22.59619141 12.93325195 -22.59619141 12.93325195 -21.36328125 12.86914062 C-20.52152344 12.82982422 -19.67976562 12.79050781 -18.8125 12.75 C-17.53826172 12.68522461 -17.53826172 12.68522461 -16.23828125 12.61914062 C-14.13821777 12.51295764 -12.03788052 12.41221503 -9.9375 12.3125 C-9.9375 11.6525 -9.9375 10.9925 -9.9375 10.3125 C-9.2775 10.3125 -8.6175 10.3125 -7.9375 10.3125 C-7.9375 9.6525 -7.9375 8.9925 -7.9375 8.3125 C-6.9475 8.3125 -5.9575 8.3125 -4.9375 8.3125 C-4.97875 7.36375 -5.02 6.415 -5.0625 5.4375 C-4.89493822 1.24845553 -4.16743315 0.44334395 0 0 Z " fill="#67CFE4" transform="translate(264.9375,90.6875)"/>
<path d="M0 0 C3.95827235 -0.05785647 7.9164367 -0.09354717 11.875 -0.125 C13.00292969 -0.14175781 14.13085938 -0.15851563 15.29296875 -0.17578125 C16.36933594 -0.18222656 17.44570312 -0.18867187 18.5546875 -0.1953125 C19.54968262 -0.20578613 20.54467773 -0.21625977 21.56982422 -0.22705078 C24 0 24 0 26 2 C26.3125 5.5 26.3125 5.5 26 9 C22.77856724 11.14762184 21.7404533 11.561068 18 11 C16.02389614 8.95575462 15 7.8823175 15 5 C10.05 5 5.1 5 0 5 C0 3.35 0 1.7 0 0 Z " fill="#51BFDA" transform="translate(226,128)"/>
<path d="M0 0 C0.33 0 0.66 0 1 0 C1.09796875 0.86882812 1.1959375 1.73765625 1.296875 2.6328125 C2.33200644 10.61046346 3.46288607 15.64427653 9.4375 21.3125 C14.58140616 24.6999504 20.42112076 24.16633505 26.38012695 24.20532227 C27.78573631 24.22017166 27.78573631 24.22017166 29.21974182 24.23532104 C32.30922949 24.26684417 35.39873251 24.29165714 38.48828125 24.31640625 C40.63348281 24.33698371 42.77868038 24.35798039 44.9238739 24.37937927 C50.56430837 24.43451813 56.20477894 24.48396349 61.84527588 24.53222656 C67.60326339 24.58250138 73.36119862 24.63815622 79.11914062 24.69335938 C90.41271573 24.80084082 101.70633627 24.90230799 113 25 C113 25.33 113 25.66 113 26 C103.24467073 26.1557301 93.4892612 26.30385314 83.73368073 26.4429636 C79.20097138 26.50782227 74.66832591 26.57504372 70.13574219 26.64819336 C35.48893298 27.20380947 35.48893298 27.20380947 20.84375 26.71484375 C19.90486938 26.69071915 18.96598877 26.66659454 17.99865723 26.64173889 C12.97659532 26.41915435 9.35340864 25.76355355 5 23 C0.82166613 17.96813474 -0.78918266 12.429929 -1 6 C-0.5625 2.5 -0.5625 2.5 0 0 Z " fill="#E6F0F5" transform="translate(100,133)"/>
<path d="M0 0 C12.54 0.33 25.08 0.66 38 1 C38 1.66 38 2.32 38 3 C38.66 3.66 39.32 4.32 40 5 C24.49 5.33 8.98 5.66 -7 6 C-7.33 5.34 -7.66 4.68 -8 4 C-5.36 3.34 -2.72 2.68 0 2 C0 1.34 0 0.68 0 0 Z " fill="#2E82B1" transform="translate(137,61)"/>
<path d="M0 0 C4.22880411 -0.14541967 8.45696413 -0.23411527 12.6875 -0.3125 C14.48477539 -0.3753418 14.48477539 -0.3753418 16.31835938 -0.43945312 C26.23764798 -0.57760478 26.23764798 -0.57760478 29.33203125 2.39453125 C31 5 31 5 31 7 C20.77 7 10.54 7 0 7 C0.66 5.68 1.32 4.36 2 3 C1.34 2.01 0.68 1.02 0 0 Z " fill="#3AA2C8" transform="translate(539,116)"/>
<path d="M0 0 C6.6 0 13.2 0 20 0 C20.66 1.32 21.32 2.64 22 4 C21.01 5.485 21.01 5.485 20 7 C17.56982422 7.34057617 17.56982422 7.34057617 14.5546875 7.29296875 C13.47832031 7.28330078 12.40195312 7.27363281 11.29296875 7.26367188 C10.16503906 7.23853516 9.03710938 7.21339844 7.875 7.1875 C6.73933594 7.17396484 5.60367188 7.16042969 4.43359375 7.14648438 C1.62192613 7.11104319 -1.18880417 7.06163517 -4 7 C-3.34 5.35 -2.68 3.7 -2 2 C-1.34 2 -0.68 2 0 2 C0 1.34 0 0.68 0 0 Z " fill="#F1F9FB" transform="translate(543,109)"/>
<path d="M0 0 C1.15145508 -0.01836914 1.15145508 -0.01836914 2.32617188 -0.03710938 C6.22167874 -0.04729815 8.1241199 -0.02142006 11.4375 2.1875 C10.1175 2.1875 8.7975 2.1875 7.4375 2.1875 C9.35891805 4.22218933 9.35891805 4.22218933 11.5625 5.6875 C12.18125 6.1825 12.8 6.6775 13.4375 7.1875 C13.4375 7.8475 13.4375 8.5075 13.4375 9.1875 C6.8375 9.1875 0.2375 9.1875 -6.5625 9.1875 C-6.5625 6.8775 -6.5625 4.5675 -6.5625 2.1875 C-8.8725 2.5175 -11.1825 2.8475 -13.5625 3.1875 C-12.5625 1.1875 -12.5625 1.1875 -10.75024414 0.57299805 C-7.16910549 -0.05802728 -3.6276471 0.00306131 0 0 Z " fill="#3FABCD" transform="translate(549.5625,99.8125)"/>
<path d="M0 0 C0 0.66 0 1.32 0 2 C0.66 2 1.32 2 2 2 C2 2.99 2 3.98 2 5 C6.95 5 11.9 5 17 5 C16.67 5.99 16.34 6.98 16 8 C14.55367187 8.05607422 14.55367187 8.05607422 13.078125 8.11328125 C11.81484375 8.17902344 10.5515625 8.24476562 9.25 8.3125 C7.99703125 8.37050781 6.7440625 8.42851563 5.453125 8.48828125 C1.910837 9.01321307 0.63451507 9.7155254 -2 12 C-4.83216045 11.91417696 -5.7751118 11.21713343 -7.8125 9.25 C-9 7 -9 7 -8.875 4.375 C-7.21189385 -0.13914527 -4.29865663 -0.23235982 0 0 Z " fill="#50AFCF" transform="translate(102,82)"/>
<path d="M0 0 C0.66 0.33 1.32 0.66 2 1 C2 1.66 2 2.32 2 3 C2.66 3 3.32 3 4 3 C4.47493001 18.35607025 4.47493001 18.35607025 2 25 C-1 27 -1 27 -5 27 C-4.2350912 21.13033144 -3.11897555 15.36133228 -1.9375 9.5625 C-1.75123047 8.64017578 -1.56496094 7.71785156 -1.37304688 6.76757812 C-0.9171263 4.51135577 -0.4594036 2.25551526 0 0 Z " fill="#50C8E1" transform="translate(236,79)"/>
<path d="M0 0 C1.0236264 0.00424484 1.0236264 0.00424484 2.06793213 0.00857544 C4.23817807 0.01973152 6.40800471 0.04482693 8.578125 0.0703125 C10.05337944 0.08034824 11.52864037 0.08947306 13.00390625 0.09765625 C16.61211442 0.11965563 20.22007875 0.15415367 23.828125 0.1953125 C24.323125 1.6803125 24.323125 1.6803125 24.828125 3.1953125 C22.1218813 4.09739373 20.58961514 4.31758849 17.81567383 4.30883789 C17.01507034 4.30876236 16.21446686 4.30868683 15.38960266 4.30860901 C14.53013535 4.30344772 13.67066803 4.29828644 12.78515625 4.29296875 C11.9015593 4.2915538 11.01796234 4.29013885 10.10758972 4.28868103 C7.28523372 4.28308319 4.46295703 4.27053111 1.640625 4.2578125 C-0.27278531 4.25279722 -2.18619687 4.24823436 -4.09960938 4.24414062 C-8.79039514 4.23311447 -13.48112163 4.21585133 -18.171875 4.1953125 C-18.171875 3.8653125 -18.171875 3.5353125 -18.171875 3.1953125 C-17.099375 3.0715625 -16.026875 2.9478125 -14.921875 2.8203125 C-11.38248193 2.45466384 -11.38248193 2.45466384 -9.38574219 1.16845703 C-6.21351805 -0.22595027 -3.45307859 -0.02830392 0 0 Z " fill="#266FA1" transform="translate(145.171875,152.8046875)"/>
<path d="M0 0 C0.99 0 1.98 0 3 0 C2.25 6.625 2.25 6.625 0 10 C-4.02290831 12.16455578 -7.5361083 12.23373525 -12.05078125 12.1953125 C-12.70958786 12.1924826 -13.36839447 12.18965271 -14.04716492 12.18673706 C-16.13580062 12.17560924 -18.22399556 12.15051948 -20.3125 12.125 C-21.73501982 12.11496059 -23.1575464 12.10583642 -24.58007812 12.09765625 C-28.05352681 12.07569447 -31.52672033 12.04121646 -35 12 C-34.34 10.68 -33.68 9.36 -33 8 C-32.24380371 7.9906543 -31.48760742 7.98130859 -30.70849609 7.97167969 C-27.26334866 7.917808 -23.81953438 7.83419159 -20.375 7.75 C-19.18519531 7.73582031 -17.99539062 7.72164062 -16.76953125 7.70703125 C-8.05659862 7.543304 -8.05659862 7.543304 -1 3 C-0.67 2.01 -0.34 1.02 0 0 Z " fill="#30719E" transform="translate(216,135)"/>
<path d="M0 0 C0.33 0 0.66 0 1 0 C1.33 1.65 1.66 3.3 2 5 C2.66 4.01 3.32 3.02 4 2 C3.96519531 2.97582031 3.93039063 3.95164062 3.89453125 4.95703125 C3.86746094 6.22933594 3.84039062 7.50164062 3.8125 8.8125 C3.76029297 10.70935547 3.76029297 10.70935547 3.70703125 12.64453125 C3.66808307 15.95940984 3.66808307 15.95940984 5.51171875 17.76171875 C6.00285156 18.17035156 6.49398437 18.57898438 7 19 C7 19.99 7 20.98 7 22 C15.25 22 23.5 22 32 22 C32 22.33 32 22.66 32 23 C27.78250781 23.07419134 23.56536189 23.1286204 19.34741211 23.16479492 C17.91277448 23.17987589 16.47818292 23.2003438 15.04370117 23.22631836 C12.98084141 23.26273437 10.91859142 23.27973243 8.85546875 23.29296875 C7.61434326 23.3086792 6.37321777 23.32438965 5.09448242 23.34057617 C2 23 2 23 0.1340332 21.60668945 C-2.88739865 17.32594823 -2.31909612 13.06441313 -1.55078125 8.09375 C-1.05950701 5.38999959 -0.54547808 2.69329804 0 0 Z " fill="#183C65" transform="translate(114,123)"/>
<path d="M0 0 C7.26 0 14.52 0 22 0 C22 1.32 22 2.64 22 4 C15.73 4 9.46 4 3 4 C2.67 5.32 2.34 6.64 2 8 C1 9 1 9 -2 9.125 C-5 9 -5 9 -6 8 C-6.04080783 6.00041636 -6.04254356 3.99954746 -6 2 C-5.67 2.99 -5.34 3.98 -5 5 C-3.35 5.33 -1.7 5.66 0 6 C0 4.02 0 2.04 0 0 Z " fill="#5EB0CF" transform="translate(85,100)"/>
<path d="M0 0 C2.8125 -0.25 2.8125 -0.25 6 0 C7.875 1.75 7.875 1.75 9 4 C9 5.32 9 6.64 9 8 C8.01 8.33 7.02 8.66 6 9 C6.33 9.66 6.66 10.32 7 11 C4.69 11.33 2.38 11.66 0 12 C0 11.34 0 10.68 0 10 C-0.66 10 -1.32 10 -2 10 C-3.125 4.25 -3.125 4.25 -2 2 C-1.34 2 -0.68 2 0 2 C0 1.34 0 0.68 0 0 Z " fill="#51A2C6" transform="translate(102,63)"/>
<path d="M0 0 C-2 2 -2 2 -3.83499146 2.24050903 C-4.57667572 2.23606781 -5.31835999 2.23162659 -6.08251953 2.22705078 C-7.34360031 2.22682419 -7.34360031 2.22682419 -8.63015747 2.22659302 C-9.53853363 2.21627045 -10.44690979 2.20594788 -11.3828125 2.1953125 C-12.31221649 2.1924826 -13.24162048 2.18965271 -14.19918823 2.18673706 C-17.1745885 2.17552069 -20.14969035 2.1504136 -23.125 2.125 C-25.13931858 2.11497208 -27.15364186 2.1058459 -29.16796875 2.09765625 C-34.11209456 2.07557661 -39.05599665 2.04103693 -44 2 C-44 1.34 -44 0.68 -44 0 C-29.42306936 -1.83440026 -14.59822195 -1.33360592 0 0 Z " fill="#3EB3D3" transform="translate(441,149)"/>
<path d="M0 0 C8.91 0 17.82 0 27 0 C27.33 1.32 27.66 2.64 28 4 C24.08334892 4.02904864 20.1667256 4.04681517 16.25 4.0625 C15.13882813 4.07087891 14.02765625 4.07925781 12.8828125 4.08789062 C11.27792969 4.09272461 11.27792969 4.09272461 9.640625 4.09765625 C8.65610352 4.10289307 7.67158203 4.10812988 6.65722656 4.11352539 C4.27130486 4.01159103 2.27835419 3.68303357 0 3 C0 2.01 0 1.02 0 0 Z " fill="#46C8E0" transform="translate(194,62)"/>
<path d="M0 0 C0.66 0 1.32 0 2 0 C2.23576736 7.62314474 1.83717315 14.58569409 0 22 C-0.33 21.34 -0.66 20.68 -1 20 C-2.98 20.99 -2.98 20.99 -5 22 C-5.13794954 14.93391809 -4.74805717 8.02639415 -4 1 C-3.67 1 -3.34 1 -3 1 C-2.67 3.31 -2.34 5.62 -2 8 C-1.34 5.36 -0.68 2.72 0 0 Z " fill="#4094BD" transform="translate(226,84)"/>
<path d="M0 0 C4.62239198 -0.02502961 9.24474308 -0.04301321 13.8671875 -0.05493164 C15.4342518 -0.059909 17.00131158 -0.06669329 18.56835938 -0.07543945 C27.76855053 -0.12544049 36.83875192 0.00853745 46 1 C44 3 44 3 40.92724609 3.22705078 C39.63898926 3.21657715 38.35073242 3.20610352 37.0234375 3.1953125 C35.99556625 3.19106766 35.99556625 3.19106766 34.94692993 3.18673706 C32.75610973 3.17553281 30.56569684 3.15042859 28.375 3.125 C26.8906309 3.11497048 25.4062554 3.10584458 23.921875 3.09765625 C20.28111739 3.07559294 16.64059844 3.04106176 13 3 C13 2.67 13 2.34 13 2 C8.71 1.67 4.42 1.34 0 1 C0 0.67 0 0.34 0 0 Z " fill="#388FBA" transform="translate(174,72)"/>
<path d="M0 0 C7.26 0 14.52 0 22 0 C22.66 1.98 23.32 3.96 24 6 C24.99 7.485 24.99 7.485 26 9 C23.69 9.33 21.38 9.66 19 10 C19 9.34 19 8.68 19 8 C16.525 7.505 16.525 7.505 14 7 C13.4375 5.0625 13.4375 5.0625 13 3 C13.33 2.67 13.66 2.34 14 2 C7.07 1.505 7.07 1.505 0 1 C0 0.67 0 0.34 0 0 Z " fill="#57BDD8" transform="translate(544,99)"/>
<path d="M0 0 C1.98 0 3.96 0 6 0 C6 0.66 6 1.32 6 2 C6.66 2.33 7.32 2.66 8 3 C7.67 3.66 7.34 4.32 7 5 C7.99 4.67 8.98 4.34 10 4 C10 4.66 10 5.32 10 6 C11.546875 5.7215625 11.546875 5.7215625 13.125 5.4375 C16.76148442 5.02692918 19.45437009 5.221691 23 6 C23 6.33 23 6.66 23 7 C15.08 7.33 7.16 7.66 -1 8 C-0.67 5.36 -0.34 2.72 0 0 Z " fill="#44BDD9" transform="translate(581,130)"/>
<path d="M0 0 C2.31 0.66 4.62 1.32 7 2 C7 2.66 7 3.32 7 4 C7.99 4.33 8.98 4.66 10 5 C10 10.28 10 15.56 10 21 C9.67 21 9.34 21 9 21 C8.87625 19.88625 8.7525 18.7725 8.625 17.625 C8.3534187 13.96896323 8.3534187 13.96896323 6 12 C5.63837971 10.67405895 5.30271961 9.34061543 5 8 C4.67 7.67 4.34 7.34 4 7 C1.94603274 7.40929986 1.94603274 7.40929986 0 8 C-0.99 6.35 -1.98 4.7 -3 3 C-2.01 2.67 -1.02 2.34 0 2 C0 1.34 0 0.68 0 0 Z " fill="#3A92BC" transform="translate(512,100)"/>
<path d="M0 0 C2.3125 2.75 2.3125 2.75 2.3125 4.75 C-4.2875 4.75 -10.8875 4.75 -17.6875 4.75 C-16.3675 4.42 -15.0475 4.09 -13.6875 3.75 C-14.0175 2.43 -14.3475 1.11 -14.6875 -0.25 C-3.93636642 -3.25343056 -3.93636642 -3.25343056 0 0 Z " fill="#3EADCE" transform="translate(567.6875,118.25)"/>
<path d="M0 0 C0.72822464 0.02644089 1.45644928 0.05288177 2.20674133 0.0801239 C4.53059397 0.1678338 6.85287404 0.2769959 9.17578125 0.38671875 C10.75189694 0.44998343 12.32806944 0.5118493 13.90429688 0.57226562 C17.76647144 0.72336499 21.62737405 0.89370798 25.48828125 1.07421875 C25.15828125 1.73421875 24.82828125 2.39421875 24.48828125 3.07421875 C10.62828125 2.57921875 10.62828125 2.57921875 -3.51171875 2.07421875 C-3.51171875 4.05421875 -3.51171875 6.03421875 -3.51171875 8.07421875 C-4.29546875 7.86796875 -5.07921875 7.66171875 -5.88671875 7.44921875 C-7.18609375 7.26359375 -7.18609375 7.26359375 -8.51171875 7.07421875 C-9.17171875 7.73421875 -9.83171875 8.39421875 -10.51171875 9.07421875 C-10.8726013 3.66098047 -10.8726013 3.66098047 -9.46948242 1.37963867 C-6.46764507 -0.62196057 -3.46613636 -0.18331776 0 0 Z " fill="#86C7DC" transform="translate(88.51171875,97.92578125)"/>
<path d="M0 0 C3.0625 0.3125 3.0625 0.3125 4.9375 1.5 C6.41031139 3.87286279 6.28473194 5.57163944 6.0625 8.3125 C3.0625 8.3125 0.0625 8.3125 -2.9375 8.3125 C-3.5975 6.3325 -4.2575 4.3525 -4.9375 2.3125 C-2.9375 0.3125 -2.9375 0.3125 0 0 Z " fill="#5ED3E6" transform="translate(264.9375,90.6875)"/>
<path d="M0 0 C0.78552246 0.01047363 1.57104492 0.02094727 2.38037109 0.03173828 C3.23115234 0.03818359 4.08193359 0.04462891 4.95849609 0.05126953 C6.29267578 0.07640625 6.29267578 0.07640625 7.65380859 0.10205078 C8.55099609 0.11107422 9.44818359 0.12009766 10.37255859 0.12939453 C12.59157445 0.15300108 14.81005937 0.18592768 17.02880859 0.22705078 C16.03880859 1.71205078 16.03880859 1.71205078 15.02880859 3.22705078 C7.1279227 4.7000973 -0.96219542 4.32201911 -8.97119141 4.22705078 C-9.30119141 3.56705078 -9.63119141 2.90705078 -9.97119141 2.22705078 C-9.02244141 2.26830078 -8.07369141 2.30955078 -7.09619141 2.35205078 C-3.42714648 2.20528898 -3.27625184 0.37737357 0 0 Z " fill="#23689A" transform="translate(120.97119140625,152.77294921875)"/>
<path d="M0 0 C13.70364816 -0.13247351 27.31762342 0.23070975 41 1 C39 3 39 3 36.29443359 3.22705078 C35.17375488 3.21657715 34.05307617 3.20610352 32.8984375 3.1953125 C31.08085937 3.18564453 31.08085937 3.18564453 29.2265625 3.17578125 C27.95554687 3.15902344 26.68453125 3.14226562 25.375 3.125 C24.09625 3.11597656 22.8175 3.10695312 21.5 3.09765625 C18.33314833 3.07402303 15.16666576 3.04107629 12 3 C12 2.67 12 2.34 12 2 C8.04 1.67 4.08 1.34 0 1 C0 0.67 0 0.34 0 0 Z " fill="#52C6DE" transform="translate(465,148)"/>
<path d="M0 0 C9.57 0 19.14 0 29 0 C28.67 2.31 28.34 4.62 28 7 C26.02 7 24.04 7 22 7 C21 4 21 4 21 1 C14.07 1 7.14 1 0 1 C0 0.67 0 0.34 0 0 Z " fill="#50B5D3" transform="translate(541,129)"/>
<path d="M0 0 C6.22961977 -0.05059881 12.4591868 -0.08569062 18.68896484 -0.10986328 C20.8094277 -0.11993751 22.92987661 -0.13359733 25.05029297 -0.15087891 C28.09345943 -0.17506489 31.13644266 -0.18646869 34.1796875 -0.1953125 C35.13181122 -0.20563507 36.08393494 -0.21595764 37.06491089 -0.22659302 C37.94567291 -0.22674408 38.82643494 -0.22689514 39.73388672 -0.22705078 C40.51110077 -0.231492 41.28831482 -0.23593323 42.08908081 -0.24050903 C44 0 44 0 46 2 C45 3 45 3 42.27734375 3.09765625 C40.62412109 3.08025391 40.62412109 3.08025391 38.9375 3.0625 C37.28041016 3.04896484 37.28041016 3.04896484 35.58984375 3.03515625 C34.73519531 3.02355469 33.88054687 3.01195313 33 3 C33 2.34 33 1.68 33 1 C22.11 1 11.22 1 0 1 C0 0.67 0 0.34 0 0 Z " fill="#336F9A" transform="translate(130,72)"/>
<path d="M0 0 C1.5 1.1875 1.5 1.1875 3 3 C3.1875 5.6875 3.1875 5.6875 3 8 C2.34 8 1.68 8 1 8 C1 8.66 1 9.32 1 10 C-1.875 10.625 -1.875 10.625 -5 11 C-5.66 10.34 -6.32 9.68 -7 9 C-6.34 7.02 -5.68 5.04 -5 3 C-3.35 3 -1.7 3 0 3 C0 2.01 0 1.02 0 0 Z " fill="#5DCAE2" transform="translate(242,147)"/>
<path d="M0 0 C1.4540625 0.0309375 1.4540625 0.0309375 2.9375 0.0625 C3.2675 2.3725 3.5975 4.6825 3.9375 7.0625 C0.9375 9.0625 0.9375 9.0625 -1.75 8.6875 C-2.513125 8.48125 -3.27625 8.275 -4.0625 8.0625 C-4.10491723 5.72955225 -4.10342937 3.39547433 -4.0625 1.0625 C-3.0625 0.0625 -3.0625 0.0625 0 0 Z " fill="#4FB8D5" transform="translate(254.0625,112.9375)"/>
<path d="M0 0 C7.92 0 15.84 0 24 0 C24.33 1.65 24.66 3.3 25 5 C23 7 23 7 20.375 7.125 C19.59125 7.08375 18.8075 7.0425 18 7 C18 5.02 18 3.04 18 1 C12.06 1 6.12 1 0 1 C0 0.67 0 0.34 0 0 Z " fill="#71CEE3" transform="translate(226,128)"/>
<path d="M0 0 C1.32 0.66 2.64 1.32 4 2 C4 2.66 4 3.32 4 4 C9.28 4 14.56 4 20 4 C20 4.33 20 4.66 20 5 C18.55367187 5.05607422 18.55367187 5.05607422 17.078125 5.11328125 C15.81484375 5.17902344 14.5515625 5.24476562 13.25 5.3125 C11.99703125 5.37050781 10.7440625 5.42851563 9.453125 5.48828125 C5.90705858 6.01377299 4.64362469 6.72439731 2 9 C-0.1875 8.875 -0.1875 8.875 -2 8 C-2.33 7.01 -2.66 6.02 -3 5 C-2.34 5 -1.68 5 -1 5 C-0.67 3.35 -0.34 1.7 0 0 Z " fill="#5EABCC" transform="translate(98,85)"/>
<path d="M0 0 C1.60294922 0.01353516 1.60294922 0.01353516 3.23828125 0.02734375 C4.04652344 0.03894531 4.85476562 0.05054688 5.6875 0.0625 C6.0175 1.0525 6.3475 2.0425 6.6875 3.0625 C3.06882441 4.2687252 -0.23756251 4.17066918 -4 4.125 C-4.70189453 4.12048828 -5.40378906 4.11597656 -6.12695312 4.11132812 C-7.85550538 4.09956927 -9.58401365 4.08163454 -11.3125 4.0625 C-11.3125 3.0725 -11.3125 2.0825 -11.3125 1.0625 C-7.47525828 0.15836327 -3.93747726 -0.04326898 0 0 Z " fill="#2C7FAE" transform="translate(163.3125,152.9375)"/>
<path d="M0 0 C16.335 0.495 16.335 0.495 33 1 C33 1.33 33 1.66 33 2 C22.06028181 3.46560818 11.01045894 3.09470423 0 3 C0 2.01 0 1.02 0 0 Z " fill="#A2E4F0" transform="translate(589,148)"/>
<path d="M0 0 C5.61 0 11.22 0 17 0 C17 0.66 17 1.32 17 2 C17.66 2.66 18.32 3.32 19 4 C16.95840905 4.0272616 14.91671037 4.04651345 12.875 4.0625 C11.73804688 4.07410156 10.60109375 4.08570312 9.4296875 4.09765625 C6.1870844 4.005327 3.18067388 3.61389906 0 3 C0 2.01 0 1.02 0 0 Z " fill="#3395C0" transform="translate(158,62)"/>
<path d="M0 0 C9.57 0 19.14 0 29 0 C29 0.99 29 1.98 29 3 C20.88303369 4.28162626 13.14684214 3.6976874 5 3 C5 2.67 5 2.34 5 2 C3.35 1.67 1.7 1.34 0 1 C0 0.67 0 0.34 0 0 Z " fill="#78DCEC" transform="translate(546,148)"/>
<path d="M0 0 C5.94 0 11.88 0 18 0 C18.33 0.99 18.66 1.98 19 3 C12.73 3 6.46 3 0 3 C0 2.01 0 1.02 0 0 Z " fill="#51C0DA" transform="translate(228,116)"/>
<path d="M0 0 C1.2684375 0.12375 1.2684375 0.12375 2.5625 0.25 C4.5625 3.25 4.5625 3.25 4.1875 5.9375 C3.98125 6.700625 3.775 7.46375 3.5625 8.25 C1.5825 8.25 -0.3975 8.25 -2.4375 8.25 C-2.4375 7.26 -2.4375 6.27 -2.4375 5.25 C-3.0975 5.25 -3.7575 5.25 -4.4375 5.25 C-3.32911727 0.34144793 -3.32911727 0.34144793 0 0 Z " fill="#509EC3" transform="translate(133.4375,54.75)"/>
<path d="M0 0 C1.32 0 2.64 0 4 0 C3.67 5.28 3.34 10.56 3 16 C2.01 14.68 1.02 13.36 0 12 C-0.33 12 -0.66 12 -1 12 C-1.02712066 10.56260487 -1.04645067 9.12506137 -1.0625 7.6875 C-1.07410156 6.88699219 -1.08570312 6.08648437 -1.09765625 5.26171875 C-1 3 -1 3 0 0 Z " fill="#173D69" transform="translate(103,127)"/>
<path d="M0 0 C5.61 0 11.22 0 17 0 C15.02 0.99 15.02 0.99 13 2 C12.29875 2.37125 11.5975 2.7425 10.875 3.125 C6.60671618 4.4240429 2.42832103 4.15477627 -2 4 C-1.34 2.68 -0.68 1.36 0 0 Z " fill="#3092BE" transform="translate(169,153)"/>
<path d="M0 0 C1.125 3.75 1.125 3.75 0 6 C-9.57 6.33 -19.14 6.66 -29 7 C-29.33 8.32 -29.66 9.64 -30 11 C-30.99 10.67 -31.98 10.34 -33 10 C-32.625 8.0625 -32.625 8.0625 -32 6 C-29.12981559 4.56490779 -26.66456277 4.88841494 -23.4609375 4.90234375 C-22.15898438 4.90556641 -20.85703125 4.90878906 -19.515625 4.91210938 C-18.13541601 4.92046534 -16.75520768 4.92893029 -15.375 4.9375 C-13.98698074 4.94251499 -12.59895978 4.9470779 -11.2109375 4.95117188 C-7.80724868 4.96299024 -4.40364561 4.97946566 -1 5 C-0.67 3.35 -0.34 1.7 0 0 Z " fill="#DEF4F8" transform="translate(627,104)"/>
<path d="M0 0 C5.23274388 -0.02467917 10.46545403 -0.04285003 15.69824219 -0.05493164 C17.47917267 -0.05996711 19.260099 -0.06679581 21.04101562 -0.07543945 C23.59766665 -0.08753942 26.15426312 -0.09323609 28.7109375 -0.09765625 C29.50994476 -0.10281754 30.30895203 -0.10797882 31.13217163 -0.11329651 C36.77225659 -0.11387171 36.77225659 -0.11387171 39 1 C38.67 2.32 38.34 3.64 38 5 C37.50145508 4.5155542 37.00291016 4.0311084 36.48925781 3.53198242 C33.1159095 1.45589762 30.01918977 1.5222811 26.171875 1.48828125 C25.42286926 1.47033005 24.67386353 1.45237885 23.90216064 1.43388367 C21.51816376 1.37985457 19.1343662 1.34590997 16.75 1.3125 C15.13018064 1.27932025 13.51038756 1.24482997 11.890625 1.20898438 C7.92722734 1.12413284 3.96388803 1.05728711 0 1 C0 0.67 0 0.34 0 0 Z " fill="#7FC2D8" transform="translate(186,76)"/>
<path d="M0 0 C0.66 0.99 1.32 1.98 2 3 C5.58357241 3.25015873 5.58357241 3.25015873 9 3 C9 3.99 9 4.98 9 6 C8.113125 6.144375 7.22625 6.28875 6.3125 6.4375 C5.219375 6.623125 4.12625 6.80875 3 7 C2.113125 7.144375 1.22625 7.28875 0.3125 7.4375 C-2.25386278 7.9220051 -2.25386278 7.9220051 -5 10 C-5.66 9.34 -6.32 8.68 -7 8 C-6.34 8 -5.68 8 -5 8 C-5 7.34 -5 6.68 -5 6 C-4.34 6 -3.68 6 -3 6 C-3 5.34 -3 4.68 -3 4 C-2.01 4 -1.02 4 0 4 C0 2.68 0 1.36 0 0 Z " fill="#55C9E0" transform="translate(260,95)"/>
<path d="M0 0 C0.33 0 0.66 0 1 0 C1.33 1.65 1.66 3.3 2 5 C2.66 4.01 3.32 3.02 4 2 C4.08159574 6.16138263 3.98248524 9.9472484 3 14 C2.01 13.67 1.02 13.34 0 13 C-0.33 14.65 -0.66 16.3 -1 18 C-1.33 18 -1.66 18 -2 18 C-2.27560214 11.79895188 -1.22899346 6.06815522 0 0 Z " fill="#264B74" transform="translate(114,123)"/>
<path d="M0 0 C0.33 0 0.66 0 1 0 C1.1875 3.375 1.1875 3.375 1 7 C-2.22791555 9.1519437 -3.28400809 9.20086443 -7 9 C-7.66 7.68 -8.32 6.36 -9 5 C-8.34 4.34 -7.68 3.68 -7 3 C-7 3.66 -7 4.32 -7 5 C-4.00847418 4.22520264 -4.00847418 4.22520264 -1 3 C-0.67 2.01 -0.34 1.02 0 0 Z " fill="#5AC8DF" transform="translate(251,130)"/>
<path d="M0 0 C8.06350113 -0.12867289 15.97497656 0.20318916 24 1 C22 3 22 3 18.5234375 3.1953125 C17.14049032 3.18201493 15.75761346 3.15816232 14.375 3.125 C13.66859375 3.11597656 12.9621875 3.10695313 12.234375 3.09765625 C10.48943902 3.07407603 8.74467705 3.03820461 7 3 C7 2.67 7 2.34 7 2 C4.69 1.67 2.38 1.34 0 1 C0 0.67 0 0.34 0 0 Z " fill="#3CA2C8" transform="translate(196,72)"/>
<path d="M0 0 C0.66 0 1.32 0 2 0 C2.23576736 7.62314474 1.83717315 14.58569409 0 22 C-0.33 22 -0.66 22 -1 22 C-0.98839844 21.15695313 -0.97679687 20.31390625 -0.96484375 19.4453125 C-0.95582031 18.34960938 -0.94679687 17.25390625 -0.9375 16.125 C-0.92589844 15.03445312 -0.91429687 13.94390625 -0.90234375 12.8203125 C-0.80255697 10.04822454 -0.80255697 10.04822454 -2 8 C-1.66015625 6.0546875 -1.66015625 6.0546875 -1.0625 3.875 C-0.86785156 3.15054688 -0.67320312 2.42609375 -0.47265625 1.6796875 C-0.31667969 1.12539062 -0.16070312 0.57109375 0 0 Z " fill="#3E9DC4" transform="translate(226,84)"/>
<path d="M0 0 C2.24658203 -0.34057617 2.24658203 -0.34057617 5.0078125 -0.29296875 C5.99394531 -0.28330078 6.98007813 -0.27363281 7.99609375 -0.26367188 C9.02863281 -0.23853516 10.06117188 -0.21339844 11.125 -0.1875 C12.68541016 -0.16719727 12.68541016 -0.16719727 14.27734375 -0.14648438 C16.85207627 -0.11105228 19.4257833 -0.06165221 22 0 C22 0.33 22 0.66 22 1 C20.84242188 1.02578125 19.68484375 1.0515625 18.4921875 1.078125 C16.95308872 1.13443349 15.41402767 1.1917802 13.875 1.25 C12.73417969 1.27126953 12.73417969 1.27126953 11.5703125 1.29296875 C6.24546694 1.52248796 3.33483356 2.68134404 -1 6 C-1.99 6.33 -2.98 6.66 -4 7 C-2.79618552 4.50638429 -1.54571278 2.31856917 0 0 Z " fill="#1D507E" transform="translate(129,73)"/>
<path d="M0 0 C0 0.99 0 1.98 0 3 C-5.94 3 -11.88 3 -18 3 C-13.78747514 -1.21252486 -5.68666971 -0.12099297 0 0 Z " fill="#3792BD" transform="translate(107,100)"/>
<path d="M0 0 C0.33 0 0.66 0 1 0 C1.3690205 12.66970387 1.3690205 12.66970387 -1 18 C-1.33 18 -1.66 18 -2 18 C-2.06058594 17.01257813 -2.12117187 16.02515625 -2.18359375 15.0078125 C-2.26738281 13.72648437 -2.35117188 12.44515625 -2.4375 11.125 C-2.51871094 9.84882812 -2.59992188 8.57265625 -2.68359375 7.2578125 C-2.79206027 4.11699848 -2.79206027 4.11699848 -4 2 C-3.01 2.33 -2.02 2.66 -1 3 C-0.67 2.01 -0.34 1.02 0 0 Z " fill="#66B2CF" transform="translate(225,77)"/>
<path d="M0 0 C1.52519276 0.08937803 3.04681929 0.24537146 4.5625 0.4375 C5.80193359 0.59025391 5.80193359 0.59025391 7.06640625 0.74609375 C7.70449219 0.82988281 8.34257813 0.91367188 9 1 C9.33 2.32 9.66 3.64 10 5 C7.03 4.67 4.06 4.34 1 4 C1 3.34 1 2.68 1 2 C0.34 1.67 -0.32 1.34 -1 1 C-0.67 0.67 -0.34 0.34 0 0 Z " fill="#3C90BA" transform="translate(108,71)"/>
<path d="M0 0 C4.29 0 8.58 0 13 0 C11.02 0.99 11.02 0.99 9 2 C9.99 2.66 10.98 3.32 12 4 C3.42857143 4.14285714 3.42857143 4.14285714 0 3 C0 2.01 0 1.02 0 0 Z " fill="#41B7D7" transform="translate(194,62)"/>
<path d="M0 0 C0.99 0.495 0.99 0.495 2 1 C4.54615009 1.23172827 7.07396225 1.41894529 9.625 1.5625 C10.33140625 1.60568359 11.0378125 1.64886719 11.765625 1.69335938 C13.51018537 1.79944751 15.25506697 1.90022889 17 2 C17 2.66 17 3.32 17 4 C11.39 4 5.78 4 0 4 C0 2.68 0 1.36 0 0 Z " fill="#3B9CC4" transform="translate(102,85)"/>
<path d="M0 0 C0.99 0 1.98 0 3 0 C4.35015859 4.05047576 3.62084998 6.7920168 3 11 C2.34 10.34 1.68 9.68 1 9 C0.34 9.99 -0.32 10.98 -1 12 C-1.02712066 10.56260487 -1.04645067 9.12506137 -1.0625 7.6875 C-1.07410156 6.88699219 -1.08570312 6.08648437 -1.09765625 5.26171875 C-1 3 -1 3 0 0 Z " fill="#163C67" transform="translate(116,119)"/>
<path d="M0 0 C0.66 0 1.32 0 2 0 C2.92470553 4.71599818 3.22923777 7.67265609 1 12 C0.34 12 -0.32 12 -1 12 C-1.02712066 10.56260487 -1.04645067 9.12506137 -1.0625 7.6875 C-1.07410156 6.88699219 -1.08570312 6.08648437 -1.09765625 5.26171875 C-1 3 -1 3 0 0 Z " fill="#1C416A" transform="translate(118,106)"/>
<path d="M0 0 C1.98 0 3.96 0 6 0 C5.67 3.63 5.34 7.26 5 11 C4.67 11 4.34 11 4 11 C3.67 9.02 3.34 7.04 3 5 C2.01 5.33 1.02 5.66 0 6 C0 4.02 0 2.04 0 0 Z " fill="#2C638E" transform="translate(107,100)"/>
<path d="M0 0 C-0.41153737 4.97093824 -0.79600832 9.44508386 -3 14 C-3.33 14 -3.66 14 -4 14 C-4.0272415 12.58344207 -4.04650467 11.16672955 -4.0625 9.75 C-4.07410156 8.96109375 -4.08570312 8.1721875 -4.09765625 7.359375 C-4.00251462 5.06075329 -3.76316406 3.16949782 -3 1 C-1 0 -1 0 0 0 Z " fill="#244B75" transform="translate(125,81)"/>
<path d="M0 0 C-2 3 -2 3 -5 4 C-6.39439664 4.06665376 -7.79169875 4.08538199 -9.1875 4.0625 C-11.0746875 4.0315625 -11.0746875 4.0315625 -13 4 C-11 1 -11 1 -9.3125 0.3125 C-6.19641489 -0.10859258 -3.13969957 -0.06037884 0 0 Z " fill="#39ACCE" transform="translate(206,153)"/>
<path d="M0 0 C1.65 0 3.3 0 5 0 C5.33 1.65 5.66 3.3 6 5 C2.25 6.125 2.25 6.125 0 5 C0 3.35 0 1.7 0 0 Z " fill="#4BA9CC" transform="translate(93,113)"/>
<path d="M0 0 C0.33 0.99 0.66 1.98 1 3 C0.67 3.33 0.34 3.66 0 4 C-0.04080783 5.99958364 -0.04254356 8.00045254 0 10 C1.98 10.66 3.96 11.32 6 12 C6 12.33 6 12.66 6 13 C2.625 13.1875 2.625 13.1875 -1 13 C-3.32579101 9.51131349 -3.41865457 8.10281481 -3 4 C-1.5 1.625 -1.5 1.625 0 0 Z " fill="#E1F2F7" transform="translate(79,97)"/>
<path d="M0 0 C0.90492187 0.02320313 1.80984375 0.04640625 2.7421875 0.0703125 C4.10730469 0.09738281 4.10730469 0.09738281 5.5 0.125 C6.19867188 0.14820313 6.89734375 0.17140625 7.6171875 0.1953125 C7.6171875 0.5253125 7.6171875 0.8553125 7.6171875 1.1953125 C5.6371875 1.1953125 3.6571875 1.1953125 1.6171875 1.1953125 C1.6171875 1.8553125 1.6171875 2.5153125 1.6171875 3.1953125 C-2.05692035 4.37102701 -5.55210433 4.26897996 -9.3828125 4.1953125 C-9.7128125 3.5353125 -10.0428125 2.8753125 -10.3828125 2.1953125 C-9.4340625 2.2365625 -8.4853125 2.2778125 -7.5078125 2.3203125 C-3.75114448 2.17004578 -3.50277246 0.2871125 0 0 Z " fill="#2B6693" transform="translate(121.3828125,152.8046875)"/>
<path d="M0 0 C2.77236494 0.08691739 5.54147078 0.19377361 8.3125 0.3125 C9.49102539 0.34633789 9.49102539 0.34633789 10.69335938 0.38085938 C11.45068359 0.41630859 12.20800781 0.45175781 12.98828125 0.48828125 C14.03302612 0.52755737 14.03302612 0.52755737 15.09887695 0.56762695 C17.49350359 1.11223768 18.43272547 2.15829162 20 4 C16.42487611 4.08125282 13.44483071 3.86120768 10 3 C8.25309081 2.7856066 6.5025977 2.59892347 4.75 2.4375 C3.41195313 2.31181641 3.41195313 2.31181641 2.046875 2.18359375 C1.37140625 2.12300781 0.6959375 2.06242188 0 2 C0 1.34 0 0.68 0 0 Z " fill="#9BDEEB" transform="translate(259,149)"/>
<path d="M0 0 C0.33 0.99 0.66 1.98 1 3 C3.97 3.495 3.97 3.495 7 4 C7.33 3.34 7.66 2.68 8 2 C7.67 3.65 7.34 5.3 7 7 C5.00045254 7.04254356 2.99958364 7.04080783 1 7 C0 6 0 6 -0.0625 2.9375 C-0.041875 1.968125 -0.02125 0.99875 0 0 Z " fill="#40A2C8" transform="translate(79,102)"/>
<path d="M0 0 C0.66 0.33 1.32 0.66 2 1 C0.68 2.65 -0.64 4.3 -2 6 C-1.38125 5.505 -0.7625 5.01 -0.125 4.5 C2 3 2 3 4 3 C4 3.66 4 4.32 4 5 C2.04072937 6.7143618 0.04119788 8.38405168 -2 10 C-3.1875 8.3125 -3.1875 8.3125 -4 6 C-2.87755007 3.70165014 -1.81522119 1.81522119 0 0 Z " fill="#335F87" transform="translate(127,74)"/>
<path d="M0 0 C0.33 0.99 0.66 1.98 1 3 C6.94 3 12.88 3 19 3 C19 3.33 19 3.66 19 4 C8.605 4.495 8.605 4.495 -2 5 C-1 1 -1 1 0 0 Z " fill="#19416D" transform="translate(381,133)"/>
<path d="M0 0 C5.75 -0.125 5.75 -0.125 8 1 C8 1.66 8 2.32 8 3 C9.65 3 11.3 3 13 3 C13 3.33 13 3.66 13 4 C8.52572076 4.08948558 4.39436211 3.85743651 0 3 C0 2.01 0 1.02 0 0 Z " fill="#2F8DBA" transform="translate(158,62)"/>
<path d="M0 0 C0.33 0 0.66 0 1 0 C0.67 4.29 0.34 8.58 0 13 C-0.66 12.67 -1.32 12.34 -2 12 C-2.28571429 3.42857143 -2.28571429 3.42857143 0 0 Z " fill="#FEFFFF" transform="translate(100,126)"/>
<path d="M0 0 C1.4540625 0.0309375 1.4540625 0.0309375 2.9375 0.0625 C2.2775 0.7225 1.6175 1.3825 0.9375 2.0625 C0.9375 3.3825 0.9375 4.7025 0.9375 6.0625 C-0.3825 5.7325 -1.7025 5.4025 -3.0625 5.0625 C-3.625 3.125 -3.625 3.125 -4.0625 1.0625 C-3.0625 0.0625 -3.0625 0.0625 0 0 Z " fill="#82D0E3" transform="translate(254.0625,112.9375)"/>
<path d="M0 0 C0.99 0.495 0.99 0.495 2 1 C2 1.66 2 2.32 2 3 C2.66 3 3.32 3 4 3 C3.6875 5.375 3.6875 5.375 3 8 C2.01 8.66 1.02 9.32 0 10 C0 6.7 0 3.4 0 0 Z " fill="#47C6DF" transform="translate(236,79)"/>
<path d="M0 0 C1.65 0 3.3 0 5 0 C5 1.65 5 3.3 5 5 C3.35 5 1.7 5 0 5 C0 3.35 0 1.7 0 0 Z " fill="#58CBE1" transform="translate(250,80)"/>
<path d="M0 0 C0 0.99 0 1.98 0 3 C1.32 3.33 2.64 3.66 4 4 C-0.16138263 4.08159574 -3.9472484 3.98248524 -8 3 C-4.93882432 0.37613513 -4.26826873 0 0 0 Z " fill="#38ACCE" transform="translate(194,62)"/>
<path d="M0 0 C0 0.99 0 1.98 0 3 C-4.29 3 -8.58 3 -13 3 C-13 2.67 -13 2.34 -13 2 C-8.46298506 0.54815522 -4.81938524 -0.23509196 0 0 Z " fill="#2A77A6" transform="translate(152,154)"/>
<path d="M0 0 C1.32 0 2.64 0 4 0 C4 1.65 4 3.3 4 5 C2.35 5 0.7 5 -1 5 C-0.67 3.35 -0.34 1.7 0 0 Z " fill="#E3F6F9" transform="translate(263,94)"/>
<path d="M0 0 C5.75 -0.125 5.75 -0.125 8 1 C8 1.66 8 2.32 8 3 C5.36 3 2.72 3 0 3 C0 2.01 0 1.02 0 0 Z " fill="#42BAD8" transform="translate(226,129)"/>
<path d="M0 0 C0.99 0 1.98 0 3 0 C3.33 1.65 3.66 3.3 4 5 C2.35 5 0.7 5 -1 5 C-0.67 3.35 -0.34 1.7 0 0 Z " fill="#E4F5F9" transform="translate(245,130)"/>
<path d="M0 0 C1.32 0 2.64 0 4 0 C3.67 1.65 3.34 3.3 3 5 C1.68 4.34 0.36 3.68 -1 3 C-0.67 2.01 -0.34 1.02 0 0 Z " fill="#E5F6F9" transform="translate(237,150)"/>
<path d="M0 0 C1.32 0.66 2.64 1.32 4 2 C3.67 2.99 3.34 3.98 3 5 C1.68 5 0.36 5 -1 5 C-0.67 3.35 -0.34 1.7 0 0 Z " fill="#DEF2F7" transform="translate(98,85)"/>
<path d="M0 0 C0 0.66 0 1.32 0 2 C-1.65 2.33 -3.3 2.66 -5 3 C-5.33 3.99 -5.66 4.98 -6 6 C-6.33 4.35 -6.66 2.7 -7 1 C-4.53721199 -0.231394 -2.7204945 -0.07159196 0 0 Z " fill="#3792BD" transform="translate(107,64)"/>
<path d="M0 0 C1.65 0 3.3 0 5 0 C5 1.32 5 2.64 5 4 C3.35 3.67 1.7 3.34 0 3 C0 2.01 0 1.02 0 0 Z " fill="#E5F4F8" transform="translate(102,67)"/>
<path d="M0 0 C1.98 0 3.96 0 6 0 C6 0.99 6 1.98 6 3 C4.02 3 2.04 3 0 3 C0 2.01 0 1.02 0 0 Z " fill="#84DDEC" transform="translate(580,148)"/>
<path d="M0 0 C0.99 0 1.98 0 3 0 C3 1.65 3 3.3 3 5 C1.68 4.67 0.36 4.34 -1 4 C-0.67 2.68 -0.34 1.36 0 0 Z " fill="#ECF7F9" transform="translate(82,101)"/>
<path d="M0 0 C1.67542976 0.28604898 3.34385343 0.61781233 5 1 C2 3 2 3 0 3 C0 3.66 0 4.32 0 5 C-0.99 5 -1.98 5 -3 5 C-1.125 1.125 -1.125 1.125 0 0 Z " fill="#E4EDF2" transform="translate(442,99)"/>
<path d="M0 0 C1.98 0.495 1.98 0.495 4 1 C4 1.99 4 2.98 4 4 C2.35 4 0.7 4 -1 4 C-0.67 2.68 -0.34 1.36 0 0 Z " fill="#DDF0F5" transform="translate(132,59)"/>
<path d="M0 0 C1.32 0.66 2.64 1.32 4 2 C3.67 3.65 3.34 5.3 3 7 C1.68 5.68 0.36 4.36 -1 3 C-0.67 2.01 -0.34 1.02 0 0 Z " fill="#3993BE" transform="translate(134,56)"/>
<path d="" fill="#FFFFFF" transform="translate(0,0)"/>
<path d="" fill="#FFFFFF" transform="translate(0,0)"/>
</svg>
